<svg xmlns="http://www.w3.org/2000/svg" width="26.579" height="28.91" viewBox="0 0 26.579 28.91"><g opacity="0.54"><g transform="translate(12.26 6.707)"><path d="M241.934,129.08l-3.706-3.023V119.9a1.033,1.033,0,1,0-2.059,0v6.718a1.153,1.153,0,0,0,.412.9l4.118,3.359a.97.97,0,0,0,.617.224,1,1,0,0,0,.825-.449A1.183,1.183,0,0,0,241.934,129.08Z" transform="translate(-236.169 -118.779)" fill="#929292"/></g><path d="M13.289,0C5.961,0,0,6.484,0,14.455S5.961,28.91,13.289,28.91s13.289-6.484,13.289-14.455S20.618,0,13.289,0Zm0,26.671C7.1,26.671,2.059,21.19,2.059,14.455S7.1,2.239,13.289,2.239,24.52,7.72,24.52,14.455,19.481,26.671,13.289,26.671Z" fill="#929292"/></g></svg>