<svg xmlns="http://www.w3.org/2000/svg" xmlns:xlink="http://www.w3.org/1999/xlink" width="36.868" height="40.219" viewBox="0 0 36.868 40.219"><defs><clipPath id="a"><path d="M12259.022,1066.956s-3.97,3.729-3.97,4.931.361,5.292,0,6.375-.48,5.653,0,6.255,5.653,5.412,6.736,5.533,10.7,0,10.7,0l5.292-5.533s1.563-4.45,1.444-6.255-.241-4.931-1.444-6.375-1.563-2.165-2.767-3.608-2.525-1.684-4.569-2.285S12259.022,1066.956,12259.022,1066.956Z" transform="translate(-12254.736 -1065.856)" fill="none" stroke="#707070" stroke-width="1"/></clipPath></defs><g transform="translate(-1403.338 -576.582)"><g transform="translate(1403.338 576.582)"><path d="M19.434,0A18.434,18.434,0,0,0,6.446,31.515l6.608,6.1a9.12,9.12,0,0,0,12.724.034l6.69-6.182A18.434,18.434,0,0,0,19.434,0ZM30.146,29.053l-6.676,6.169a5.887,5.887,0,0,1-8.106-.03L8.769,29.1a15.081,15.081,0,1,1,21.377-.045ZM27.327,12.842,22.3,9.354a5.041,5.041,0,0,0-5.731,0l-5.027,3.487a5.027,5.027,0,0,0-2.162,4.131v5.651a4.19,4.19,0,0,0,4.19,4.19H25.3a4.189,4.189,0,0,0,4.189-4.19V16.973a5.027,5.027,0,0,0-2.162-4.131Zm-1.19,9.782a.838.838,0,0,1-.838.838H22.785V20.11a1.676,1.676,0,0,0-1.676-1.676H17.758a1.676,1.676,0,0,0-1.676,1.676v3.352H13.569a.838.838,0,0,1-.838-.838V16.973a1.676,1.676,0,0,1,.721-1.378l5.027-3.487a1.686,1.686,0,0,1,1.91,0l5.027,3.487a1.676,1.676,0,0,1,.721,1.378Z" transform="translate(-1)" fill="#fff" opacity="0.29"/><g transform="translate(6.808 6.385)" clip-path="url(#a)"><path d="M19.434,0A18.434,18.434,0,0,0,6.446,31.515l6.608,6.1a9.12,9.12,0,0,0,12.724.034l6.69-6.182A18.434,18.434,0,0,0,19.434,0ZM30.146,29.053l-6.676,6.169a5.887,5.887,0,0,1-8.106-.03L8.769,29.1a15.081,15.081,0,1,1,21.377-.045ZM27.327,12.842,22.3,9.354a5.041,5.041,0,0,0-5.731,0l-5.027,3.487a5.027,5.027,0,0,0-2.162,4.131v5.651a4.19,4.19,0,0,0,4.189,4.19H25.3a4.189,4.189,0,0,0,4.19-4.19V16.973a5.027,5.027,0,0,0-2.162-4.131Zm-1.19,9.782a.838.838,0,0,1-.838.838H22.785V20.11a1.676,1.676,0,0,0-1.676-1.676H17.758a1.676,1.676,0,0,0-1.676,1.676v3.352H13.569a.838.838,0,0,1-.838-.838V16.973a1.676,1.676,0,0,1,.721-1.378l5.027-3.487a1.686,1.686,0,0,1,1.91,0l5.027,3.487a1.676,1.676,0,0,1,.721,1.378Z" transform="translate(-7.8 -6.385)" fill="#fff" stroke="rgba(0,0,0,0)" stroke-miterlimit="10" stroke-width="1"/></g></g></g></svg>