<svg xmlns="http://www.w3.org/2000/svg" width="44.879" height="43.255" viewBox="0 0 44.879 43.255"><g transform="translate(-1571.144 -581.853)"><g transform="translate(1571.673 582.353)"><path d="M30.69,3a1.048,1.048,0,0,0-.2.034L9.627,8.482A1.089,1.089,0,0,0,8.869,9.8a1.037,1.037,0,0,0,1.263.792l1.834-.477v7.049h2.087V9.572L30.747,5.213,47.44,9.572v7.594h2.087V10.117l1.834.477A1.043,1.043,0,0,0,52.629,9.8a1.1,1.1,0,0,0-.762-1.32L31,3.034A.95.95,0,0,0,30.69,3ZM11.966,19.345v2.179h2.087V19.345Zm35.474,0v2.179h2.087V19.345ZM11.966,23.7v2.179h2.087V23.7Zm35.474,0v2.179h2.087V23.7Z" transform="translate(-8.836 -2.999)" fill="#fff" stroke="rgba(0,0,0,0)" stroke-miterlimit="10" stroke-width="1"/><g transform="translate(2.822 18.607)" opacity="0.29"><path d="M1314.8,819.986v16.485h-7.389v-.676c0-3.519,0-.191,0-3.71,0-1-.4-1.329-1.686-1.33q-7.578-.008-15.156,0c-1.239,0-1.657.334-1.658,1.288,0,3.519,0,.191,0,3.71v.722h-7.2V819.986h-2.522v.609c0,15.784,0,.5,0,16.288,0,1.3.284,1.525,1.909,1.525h34.354c.216,0,.433.006.648,0,.686-.031,1.108-.305,1.192-.844a5.743,5.743,0,0,0,.047-.882c0-15.742,0-.42,0-16.161,0-.174.011-.349.024-.53Zm-9.888,16.5h-13.5v-3.748h13.5Z" transform="translate(-1279.188 -814.261)" fill="#fff"/><path d="M1349.867,825.5h-.04v-8.965h.04V814.02h-15.75v14h15.75Zm-9.317.031h-4.3v-9.012h4.3Zm6.761,0h-4.327v-9h4.327Z" transform="translate(-1322.656 -815.295)" fill="#fff"/></g></g></g></svg>