<svg xmlns="http://www.w3.org/2000/svg" width="33.946" height="35.351" viewBox="0 0 33.946 35.351"><g transform="translate(0.524 0.5)"><g transform="translate(0 0)"><path d="M25.243,3a.787.787,0,0,0-.147.026L9.43,7.116a.818.818,0,0,0-.569.991.778.778,0,0,0,.949.594l1.377-.358v5.292h1.567v-5.7L25.285,4.662,37.818,7.934v5.7h1.567V8.343l1.377.358a.783.783,0,0,0,.952-.594.822.822,0,0,0-.572-.991L25.475,3.025A.714.714,0,0,0,25.243,3ZM11.186,15.271v1.636h1.567V15.271Zm26.632,0v1.636h1.567V15.271ZM11.186,18.543v1.636h1.567V18.543Zm26.632,0v1.636h1.567V18.543Z" transform="translate(-8.836 -2.999)" fill="#717171" stroke="rgba(0,0,0,0)" stroke-width="1"/><g transform="translate(2.119 13.969)"><path d="M1305.924,819.986v15.947h-5.548v-.654c0-3.4,0-.184,0-3.589,0-.97-.3-1.286-1.265-1.287q-5.689-.008-11.379,0c-.931,0-1.244.323-1.245,1.246,0,3.4,0,.184,0,3.589v.7h-5.4V819.986h-1.893v.59c0,15.268,0,.487,0,15.756,0,1.258.213,1.475,1.433,1.475h25.791c.162,0,.325.006.487,0a.858.858,0,0,0,.895-.817,7.13,7.13,0,0,0,.035-.854c0-15.228,0-.406,0-15.633,0-.168.009-.337.018-.513Zm-7.423,15.961h-10.139v-3.626H1298.5Z" transform="translate(-1279.188 -817.426)" fill="#717171" stroke="rgba(0,0,0,0)" stroke-width="1"/><path d="M1345.942,822.641h-.03V815.91h.03v-1.89h-11.824v10.511h11.824Zm-6.995.023h-3.23V815.9h3.23Zm5.076,0h-3.249v-6.755h3.249Z" transform="translate(-1325.512 -814.02)" fill="#717171" stroke="rgba(0,0,0,0)" stroke-width="1"/></g></g></g></svg>