<svg xmlns="http://www.w3.org/2000/svg" width="15.854" height="15.856" viewBox="0 0 15.854 15.856"><path d="M-340.471,206.115c.712,0,1.424,0,2.135,0a1.642,1.642,0,0,1,1.664,1.668c0,1.372,0,2.744,0,4.116a2.919,2.919,0,0,1-.865,2.148q-3.658,3.673-7.331,7.33a1.9,1.9,0,0,1-2.79-.035q-2.126-2.12-4.245-4.245a1.91,1.91,0,0,1-.009-2.812q3.637-3.65,7.287-7.287a2.935,2.935,0,0,1,2.171-.883C-341.792,206.119-341.132,206.115-340.471,206.115Zm.17,5.271a1.642,1.642,0,0,0,1.651-1.64,1.658,1.658,0,0,0-1.649-1.652,1.642,1.642,0,0,0-1.643,1.649A1.62,1.62,0,0,0-340.3,211.387Z" transform="translate(352.523 -206.114)" fill="#202741"/></svg>