<svg xmlns="http://www.w3.org/2000/svg" xmlns:xlink="http://www.w3.org/1999/xlink" width="58" height="69.947" viewBox="0 0 58 69.947"><defs><linearGradient id="a" x1="0.5" x2="0.5" y2="1" gradientUnits="objectBoundingBox"><stop offset="0" stop-color="#fff"/><stop offset="1" stop-color="gray" stop-opacity="0"/></linearGradient></defs><g transform="translate(-43 -7)"><rect width="58" height="69.947" rx="5" transform="translate(43 7)" opacity="0.36" fill="url(#a)"/><g transform="translate(13.916 11.616)"><g transform="translate(43 8.432)"><path d="M-321.223-62.884v4.2a.605.605,0,0,1-.647.554h-2.848a.605.605,0,0,1-.647-.554v-7.719a.605.605,0,0,1,.647-.553h9.021a.605.605,0,0,1,.646.553v2.415a.605.605,0,0,1-.646.553h-4.879A.605.605,0,0,0-321.223-62.884Z" transform="translate(325.375 66.959)" fill="#fff"/><path d="M-151.031-58.08h-2.807a.606.606,0,0,1-.647-.554v-4.185a.605.605,0,0,0-.646-.553h-4.918a.606.606,0,0,1-.647-.554v-2.433a.606.606,0,0,1,.647-.553h9.018a.606.606,0,0,1,.647.553v7.724A.606.606,0,0,1-151.031-58.08Z" transform="translate(179.442 66.916)" fill="#fff"/><path d="M-325.463,106.047V98.324a.605.605,0,0,1,.647-.554h2.836a.605.605,0,0,1,.646.554v4.161a.605.605,0,0,0,.646.554h4.9a.605.605,0,0,1,.647.553v2.455a.605.605,0,0,1-.647.553h-9.032A.605.605,0,0,1-325.463,106.047Z" transform="translate(325.463 -81.726)" fill="#fff"/><path d="M-150.934,106.62h-9.021a.605.605,0,0,1-.647-.554v-2.428a.605.605,0,0,1,.647-.554h4.86a.605.605,0,0,0,.647-.553v-4.2a.605.605,0,0,1,.646-.554h2.868a.605.605,0,0,1,.646.554v7.732A.605.605,0,0,1-150.934,106.62Z" transform="translate(179.359 -81.736)" fill="#fff"/></g></g></g></svg>