<svg xmlns="http://www.w3.org/2000/svg" xmlns:xlink="http://www.w3.org/1999/xlink" width="36.644" height="48.014" viewBox="0 0 36.644 48.014"><defs><linearGradient id="a" x1="0.5" x2="0.5" y2="1" gradientUnits="objectBoundingBox"><stop offset="0" stop-color="#d4d4d4"/><stop offset="1" stop-color="#a4a4a4"/></linearGradient></defs><path d="M295.4,279.134c-1.89-2.421-3.725-4.76-5.547-7.107-3.172-4.084-6.492-8.064-9.473-12.283C272.79,249,279.1,233.814,292.039,231.451c10.157-1.855,19.388,4.288,21.334,14.34a17.78,17.78,0,0,1-3.4,14.73c-4.671,6.09-9.43,12.112-14.152,18.162C295.724,278.806,295.609,278.913,295.4,279.134Zm9.889-29.716a9.985,9.985,0,0,0-10.217-9.926c-5.121-.012-9.548,4.52-9.628,9.858a9.922,9.922,0,1,0,19.845.068Z" transform="translate(-277.106 -231.121)" fill="url(#a)"/></svg>