<svg xmlns="http://www.w3.org/2000/svg" xmlns:xlink="http://www.w3.org/1999/xlink" width="32.193" height="32.175" viewBox="0 0 32.193 32.175"><defs><clipPath id="a"><rect width="18.018" height="13.65" fill="#717171"/></clipPath></defs><g transform="translate(0.5 0.5)"><path d="M30.051,11.781l-9.858-9.86a6.509,6.509,0,0,0-9.192,0l-9.858,9.86A3.871,3.871,0,0,0,0,14.537V27.3a3.9,3.9,0,0,0,3.9,3.9H27.294a3.9,3.9,0,0,0,3.9-3.9V14.537A3.871,3.871,0,0,0,30.051,11.781ZM19.5,28.6H11.7V23.483a3.9,3.9,0,1,1,7.8,0Zm9.1-1.3a1.3,1.3,0,0,1-1.3,1.3H22.1V23.483a6.5,6.5,0,1,0-13,0V28.6H3.9a1.3,1.3,0,0,1-1.3-1.3V14.537a1.31,1.31,0,0,1,.381-.919l9.858-9.856a3.91,3.91,0,0,1,5.516,0l9.858,9.86a1.31,1.31,0,0,1,.381.915Z" transform="translate(0 -0.021)" fill="#717171" stroke="rgba(0,0,0,0)" stroke-width="1"/><g transform="translate(7.565 14.9)" clip-path="url(#a)"><path d="M30.051,11.781l-9.858-9.86a6.509,6.509,0,0,0-9.192,0l-9.858,9.86A3.871,3.871,0,0,0,0,14.537V27.3a3.9,3.9,0,0,0,3.9,3.9H27.294a3.9,3.9,0,0,0,3.9-3.9V14.537A3.871,3.871,0,0,0,30.051,11.781ZM19.5,28.6H11.7V23.483a3.9,3.9,0,1,1,7.8,0Zm9.1-1.3a1.3,1.3,0,0,1-1.3,1.3H22.1V23.483a6.5,6.5,0,1,0-13,0V28.6H3.9a1.3,1.3,0,0,1-1.3-1.3V14.537a1.31,1.31,0,0,1,.381-.919l9.858-9.856a3.91,3.91,0,0,1,5.516,0l9.858,9.86a1.31,1.31,0,0,1,.381.915Z" transform="translate(-7.138 -14.922)" fill="#717171" stroke="rgba(0,0,0,0)" stroke-width="1"/></g></g></svg>