<svg xmlns="http://www.w3.org/2000/svg" width="116.252" height="116.161" viewBox="0 0 116.252 116.161"><g transform="translate(0 0.502)"><g transform="translate(0)"><g transform="translate(0 0.015)"><path d="M-38.581,465.6a11.639,11.639,0,0,0-4.376-2.193,48.891,48.891,0,0,0-21.187-1.653,50.736,50.736,0,0,0-10.194,2.622,6.889,6.889,0,0,0-4.824,7.551c.158,2.246.029,4.513.029,6.77v10.28h6.764c0-.622,0-1.068,0-1.515,0-4.139-.1-8.282.09-12.412.036-.8,1.193-1.543,1.833-2.313a9.45,9.45,0,0,1,2.036,2.2,6.908,6.908,0,0,1,.082,2.676c0,3.8,0,7.607,0,11.452h21.749c0-2.344,0-4.444,0-6.544a73.529,73.529,0,0,1,.094-7.44,3.115,3.115,0,0,1,1.888-2.208c1.433-.3,2.073.861,2.072,2.27,0,.978,0,1.956,0,2.935q0,5.481,0,10.959H-35.8c0-6.49.164-12.872-.123-19.234C-35.993,468.344-37.376,466.694-38.581,465.6Z" transform="translate(79.187 -373.907)" fill="#fff"/><path d="M16.517,268.247c-7.91,4.492-15.778,9.059-23.652,13.616a9.672,9.672,0,0,0-.984.776c8.148,4.694,16.172,9.262,24.125,13.953a3.444,3.444,0,0,0,1.455.519V267.98A2.475,2.475,0,0,0,16.517,268.247Z" transform="translate(40.241 -267.98)" fill="#fff"/><path d="M11.231,322.5c-7.514-4.412-15.069-8.754-22.621-13.1a17.814,17.814,0,0,0-1.705-.744c0,9.749-.024,19.228.056,28.706a2.686,2.686,0,0,0,1.282,1.775c3.667,2.209,7.4,4.315,11.1,6.455l13.46,7.77c0-9.991.031-19.468-.067-28.944C12.734,323.76,11.9,322.892,11.231,322.5Z" transform="translate(42.97 -290.27)" fill="#fff"/><path d="M-36.446,423.49c3.265-3.337,4.7-9.884,2.609-14.036a8.635,8.635,0,0,0-4.208-3.991c-5.1-1.877-12.373-.313-12.168,7.2.045,4.938.986,8.264,3.614,10.926C-43.568,426.658-39.48,426.592-36.446,423.49Z" transform="translate(63.312 -342.926)" fill="#fff"/></g><g transform="translate(57.702 0)" opacity="0.39"><path d="M122.3,466.289a15.791,15.791,0,0,0-5.248-2.894,47.243,47.243,0,0,0-21.178-1.642,52.808,52.808,0,0,0-10.782,2.951c-2.9,1.088-4.3,3.54-4.206,6.8.1,3.533.024,7.072.024,10.609v6.907h6.632a8.246,8.246,0,0,0,.12-.951c.009-4.289.019-8.578.007-12.867,0-1.394.5-2.446,2-2.461s2.056,1.026,2.057,2.417q0,2.37,0,4.74,0,4.573,0,9.13h21.752c0-4.7,0-9.133,0-13.571,0-1.417.34-2.668,2.016-2.685s2.061,1.169,2.033,2.629c-.038,2.031-.009,4.063-.009,6.095,0,2.523,0,5.045,0,7.5h6.744c0-6.436.1-12.744-.086-19.044A5.6,5.6,0,0,0,122.3,466.289Z" transform="translate(-66.235 -373.869)" fill="#fff" stroke="rgba(0,0,0,0)" strokeMiterlimit="10" strokeWidth="1"/><path d="M50.479,296.505c7.454-4.38,14.956-8.678,22.441-13.005.477-.276.944-.569,1.426-.861-.222-.3-.284-.464-.4-.532-8.067-4.674-16.126-9.362-24.233-13.964a2.2,2.2,0,0,0-1.234-.181v29.13A3.321,3.321,0,0,0,50.479,296.505Z" transform="translate(-48.476 -267.946)" fill="#fff" stroke="rgba(0,0,0,0)" strokeMiterlimit="10" strokeWidth="1"/><path d="M79.45,337.21c.042-9.479.031-18.958.031-28.846-.86.456-1.383.714-1.888,1-7.42,4.274-14.814,8.6-22.278,12.794a3.14,3.14,0,0,0-1.774,3.222c.061,8.429.026,16.859.035,25.289,0,.707.084,1.414.151,2.457,8.535-4.93,16.785-9.681,25-14.486A1.926,1.926,0,0,0,79.45,337.21Z" transform="translate(-51.252 -290.095)" fill="#fff" stroke="rgba(0,0,0,0)" strokeMiterlimit="10" strokeWidth="1"/><path d="M113.854,424.044a6.668,6.668,0,0,0,9.184-.052c2.9-2.658,3.927-6.1,3.938-9.919,0-.676.057-1.357-.009-2.026a7.635,7.635,0,0,0-6.661-7.134c-4.4-.683-8.058.913-9.588,4.188C108.6,413.638,110.089,420.739,113.854,424.044Z" transform="translate(-82.054 -342.92)" fill="#fff" stroke="rgba(0,0,0,0)" strokeMiterlimit="10" strokeWidth="1"/></g></g></g></svg>