<svg xmlns="http://www.w3.org/2000/svg" width="61.006" height="61.326" viewBox="0 0 61.006 61.326"><g transform="translate(-1446.022 -9897.391)"><g transform="translate(1464.836 9916.159)"><path d="M1182.762,221.047c-.05-.347-.082-.492-.088-.638-.082-1.837-.6-2.357-2.385-2.368-1.559-.01-3.119-.012-4.678,0-1.694.015-2.247.559-2.248,2.208q0,12.175,0,24.35c0,1.512.545,2.091,2.087,2.13,1.6.042,3.2.027,4.8.011,1.867-.02,2.419-.58,2.423-2.456.009-4.239-.087-8.48.059-12.713a10.027,10.027,0,0,1,1.16-3.951,3.774,3.774,0,0,1,3.966-1.918,3.657,3.657,0,0,1,3.408,2.6,10.2,10.2,0,0,1,.551,2.913c.058,4.437.023,8.876.031,13.315,0,1.585.544,2.162,2.154,2.2q2.638.058,5.277,0c1.512-.037,2.121-.655,2.107-2.15-.059-5.553-.058-11.109-.267-16.656a11.288,11.288,0,0,0-2.564-7.082c-2.852-3.329-6.627-3.476-10.549-2.9A8.108,8.108,0,0,0,1182.762,221.047Zm-13.036,11.239q0-5.935,0-11.873c0-1.756-.6-2.353-2.379-2.37-1.558-.015-3.119-.021-4.677,0-1.6.025-2.255.672-2.258,2.278q-.017,12.055,0,24.108c0,1.637.606,2.264,2.229,2.3,1.6.037,3.2.033,4.8,0,1.729-.033,2.286-.619,2.289-2.335Q1169.73,238.343,1169.726,232.287Zm-10.532-22.119a5.909,5.909,0,1,0,11.818-.1,5.956,5.956,0,0,0-5.912-5.868A5.893,5.893,0,0,0,1159.194,210.167Z" transform="translate(-1159.194 -204.204)" fill="#db2d34"/></g><circle cx="16.815" cy="16.815" r="16.815" transform="matrix(1, -0.017, 0.017, 1, 1446.022, 9897.978)" fill="#979797" opacity="0.1"/></g></svg>