<svg xmlns="http://www.w3.org/2000/svg" xmlns:xlink="http://www.w3.org/1999/xlink" width="33.306" height="35.49" viewBox="0 0 33.306 35.49"><defs><clipPath id="a"><rect width="33.306" height="35.49" transform="translate(0 0)" fill="#717171"/></clipPath><clipPath id="b"><rect width="19.11" height="36.036" fill="#717171"/></clipPath><clipPath id="c"><rect width="25.116" height="36.582" fill="#717171"/></clipPath></defs><g clip-path="url(#a)"><g transform="translate(-5.518 -1.474)"><g transform="translate(24.024 0)" clip-path="url(#b)"><path d="M14.81,12.28a.874.874,0,0,0,.871.877h.871a.877.877,0,0,0,0-1.754h-.871A.874.874,0,0,0,14.81,12.28ZM11.326,11.4H12.2a.877.877,0,0,1,0,1.754h-.871a.877.877,0,0,1,0-1.754Zm4.356,3.509h.871a.877.877,0,0,1,0,1.754h-.871a.877.877,0,0,1,0-1.754Zm-4.356,0H12.2a.877.877,0,0,1,0,1.754h-.871a.877.877,0,0,1,0-1.754ZM15.682,4.386h.871a.877.877,0,0,1,0,1.754h-.871a.877.877,0,0,1,0-1.754Zm-4.356,0H12.2a.877.877,0,0,1,0,1.754h-.871a.877.877,0,0,1,0-1.754Zm4.356,3.509h.871a.877.877,0,0,1,0,1.754h-.871a.877.877,0,0,1,0-1.754Zm-4.356,0H12.2a.877.877,0,0,1,0,1.754h-.871a.877.877,0,0,1,0-1.754ZM0,8.771V26.562a4.376,4.376,0,0,0,4.356,4.386h12.2a4.376,4.376,0,0,0,4.356-4.386V4.386A4.376,4.376,0,0,0,16.553,0H11.326A4.376,4.376,0,0,0,6.97,4.386H4.356A4.376,4.376,0,0,0,0,8.771ZM16.553,29.193H8.712V4.386a2.623,2.623,0,0,1,2.614-2.631h5.227a2.623,2.623,0,0,1,2.614,2.631V26.562A2.623,2.623,0,0,1,16.553,29.193ZM1.742,8.771A2.623,2.623,0,0,1,4.356,6.14H6.97V29.193H4.356a2.623,2.623,0,0,1-2.614-2.631ZM4.356,11.4a.877.877,0,1,1-.871.877A.874.874,0,0,1,4.356,11.4Zm0,3.509a.877.877,0,1,1-.871.877A.874.874,0,0,1,4.356,14.911Zm0-7.017a.877.877,0,1,1-.871.877A.874.874,0,0,1,4.356,7.894Z" transform="translate(-7.205 4.475)" fill="#717171"/></g><g transform="translate(0 3.914)" clip-path="url(#c)"><path d="M7.709,15.523a1.105,1.105,0,0,1-1.1,1.109h-1.1a1.109,1.109,0,0,1,0-2.218h1.1A1.105,1.105,0,0,1,7.709,15.523Zm4.405-1.109h-1.1a1.109,1.109,0,0,0,0,2.218h1.1a1.109,1.109,0,0,0,0-2.218ZM6.608,18.849h-1.1a1.109,1.109,0,0,0,0,2.218h1.1a1.109,1.109,0,0,0,0-2.218Zm5.506,0h-1.1a1.109,1.109,0,0,0,0,2.218h1.1a1.109,1.109,0,0,0,0-2.218ZM6.608,5.544h-1.1a1.109,1.109,0,0,0,0,2.218h1.1a1.109,1.109,0,0,0,0-2.218Zm5.506,0h-1.1a1.109,1.109,0,0,0,0,2.218h1.1a1.109,1.109,0,0,0,0-2.218ZM6.608,9.979h-1.1a1.109,1.109,0,0,0,0,2.218h1.1a1.109,1.109,0,0,0,0-2.218Zm5.506,0h-1.1a1.109,1.109,0,0,0,0,2.218h1.1a1.109,1.109,0,0,0,0-2.218Zm14.317,1.109v9.979a5.532,5.532,0,0,1-5.506,5.544H5.506A5.532,5.532,0,0,1,0,21.067V5.544A5.532,5.532,0,0,1,5.506,0h6.608a5.532,5.532,0,0,1,5.506,5.544h3.3a5.532,5.532,0,0,1,5.506,5.544ZM5.506,24.393h9.912V5.544a3.315,3.315,0,0,0-3.3-3.326H5.506A3.315,3.315,0,0,0,2.2,5.544V21.067A3.315,3.315,0,0,0,5.506,24.393ZM24.228,11.088a3.315,3.315,0,0,0-3.3-3.326h-3.3V24.393h3.3a3.315,3.315,0,0,0,3.3-3.326Zm-3.3,3.326a1.109,1.109,0,1,0,1.1,1.109A1.105,1.105,0,0,0,20.925,14.414Zm0,4.435a1.109,1.109,0,1,0,1.1,1.109A1.105,1.105,0,0,0,20.925,18.849Zm0-8.87a1.109,1.109,0,1,0,1.1,1.109A1.105,1.105,0,0,0,20.925,9.979Z" transform="translate(7.265 4.517)" fill="#717171" stroke="rgba(0,0,0,0)" stroke-width="1"/></g></g></g></svg>