<svg xmlns="http://www.w3.org/2000/svg" width="70.946" height="61.696" viewBox="0 0 70.946 61.696"><g transform="translate(-1083.148 -9897.391)"><path d="M1032.044,211.172a22.1,22.1,0,0,1-5.421,1.546c.871-.146,2.151-1.725,2.665-2.363a9.959,9.959,0,0,0,1.8-3.282c.047-.093.082-.211-.013-.281a.31.31,0,0,0-.287.024,27.611,27.611,0,0,1-6.428,2.46.431.431,0,0,1-.443-.116,5.161,5.161,0,0,0-.561-.575,11.376,11.376,0,0,0-3.115-1.908,10.836,10.836,0,0,0-4.776-.769,11.425,11.425,0,0,0-4.53,1.279,11.706,11.706,0,0,0-3.655,2.986,11.221,11.221,0,0,0-2.182,4.372,11.837,11.837,0,0,0-.116,4.615c.035.259.012.294-.222.259-8.828-1.314-16.145-4.473-22.086-11.242-.258-.295-.4-.295-.609.022-2.6,3.9-1.339,10.156,1.909,13.232.433.411.878.821,1.357,1.2a11.258,11.258,0,0,1-4.262-1.2c-.258-.162-.388-.069-.41.224a6.733,6.733,0,0,0,.071,1.264,11.324,11.324,0,0,0,6.98,9.029,6.617,6.617,0,0,0,1.416.433,12.622,12.622,0,0,1-4.18.129c-.3-.058-.421.094-.3.386,1.839,5.013,5.81,6.5,8.782,7.354.4.071.8.071,1.2.163-.025.036-.048.036-.072.071-.986,1.5-4.4,2.622-6,3.178a21.467,21.467,0,0,1-9.108,1.167c-.49-.072-.593-.067-.726,0-.135.083-.017.2.14.327.622.41,1.253.774,1.9,1.125a30,30,0,0,0,6.088,2.436c10.943,3.022,23.27.8,31.487-7.363,6.453-6.41,8.714-15.252,8.714-24.1,0-.347.409-.537.651-.721a21.327,21.327,0,0,0,4.286-4.456,1.364,1.364,0,0,0,.284-.855v-.046C1032.264,211.031,1032.261,211.073,1032.044,211.172Z" transform="translate(121.83 9709.081)" fill="#db2d34"/><circle cx="16.815" cy="16.815" r="16.815" transform="matrix(1, -0.017, 0.017, 1, 1083.148, 9897.978)" fill="#979797" opacity="0.1"/></g></svg>