<svg xmlns="http://www.w3.org/2000/svg" xmlns:xlink="http://www.w3.org/1999/xlink" width="1920" height="1083" viewBox="0 0 1920 1083"><defs><clipPath id="a"><rect width="1920" height="1083" stroke="#707070" strokeWidth="1"/></clipPath><clipPath id="b"><path d="M0,0H1920V1083H0Z" fill="#2c2041"/></clipPath></defs><path d="M0,0H1920V1083H0Z" fill="#2c2041"/><g clip-path="url(#b)"><g transform="matrix(0.839, -0.545, 0.545, 0.839, 429.995, 228.18)" fill="#fff" opacity="0.02"><path d="M 0.5 1953.499633789062 L 0.5 0.5003733038902283 C 12.36041069030762 0.5171040296554565 24.31522750854492 1.129112482070923 36.04166793823242 2.319999933242798 C 47.76071548461914 3.509999990463257 59.53643035888672 5.307142734527588 71.04166412353516 7.661666870117188 C 93.67381286621094 12.29285717010498 115.9357147216797 19.20333290100098 137.2088165283203 28.20095252990723 C 158.0957183837891 37.03547668457031 178.2411956787109 47.97000122070312 197.0857086181641 60.70119094848633 C 215.7514343261719 73.31143188476562 233.3035736083984 87.7933349609375 249.2550048828125 103.745002746582 C 265.2066650390625 119.6964263916016 279.6885681152344 137.2485656738281 292.2987976074219 155.9142913818359 C 305.0299987792969 174.7588043212891 315.9645385742188 194.9042816162109 324.7990417480469 215.7911834716797 C 333.7966613769531 237.0642852783203 340.7071533203125 259.3262023925781 345.3383483886719 281.9583435058594 C 347.69287109375 293.4635620117188 349.489990234375 305.2392883300781 350.6799926757812 316.9583435058594 C 351.8876342773438 328.8495178222656 352.5 340.9757080078125 352.5 353 L 352.5 1601 C 352.5 1613.024291992188 351.8876342773438 1625.150512695312 350.6799926757812 1637.041625976562 C 349.489990234375 1648.7607421875 347.69287109375 1660.536376953125 345.3383483886719 1672.041625976562 C 340.7071533203125 1694.673828125 333.7966613769531 1716.935668945312 324.7990417480469 1738.208862304688 C 315.9645385742188 1759.095703125 305.0299987792969 1779.241455078125 292.2987976074219 1798.085693359375 C 279.6885681152344 1816.75146484375 265.2066650390625 1834.303833007812 249.2550048828125 1850.255249023438 C 233.3035736083984 1866.206665039062 215.7514343261719 1880.688598632812 197.0857086181641 1893.298828125 C 178.2411956787109 1906.030029296875 158.0957183837891 1916.964477539062 137.2088165283203 1925.799072265625 C 115.9357147216797 1934.796630859375 93.67381286621094 1941.707153320312 71.04166412353516 1946.33837890625 C 59.53643035888672 1948.69287109375 47.76071548461914 1950.489990234375 36.04166793823242 1951.680053710938 C 24.31522750854492 1952.870849609375 12.36041069030762 1953.48291015625 0.5 1953.499633789062 Z" stroke="none"/><path d="M 1 1.00146484375 L 1 1952.99853515625 C 12.67916870117188 1952.965576171875 24.44644165039062 1952.355102539062 35.99118041992188 1951.1826171875 C 47.69357299804688 1949.994262695312 59.452392578125 1948.199462890625 70.94143676757812 1945.8486328125 C 93.54119873046875 1941.223999023438 115.7711944580078 1934.323364257812 137.0140533447266 1925.338623046875 C 157.8711853027344 1916.516723632812 177.9880981445312 1905.59765625 196.8057098388672 1892.884521484375 C 215.4450073242188 1880.292114257812 232.9726257324219 1865.830444335938 248.9016723632812 1849.901611328125 C 264.8304748535156 1833.97265625 279.2921447753906 1816.445068359375 291.884521484375 1797.8056640625 C 304.5976257324219 1778.988037109375 315.5166625976562 1758.871215820312 324.3385620117188 1738.014038085938 C 333.3233337402344 1716.771240234375 340.2240600585938 1694.541259765625 344.8485717773438 1671.94140625 C 347.1995239257812 1660.452392578125 348.9942932128906 1648.693603515625 350.1826171875 1636.9912109375 C 351.3885803222656 1625.11669921875 352 1613.00732421875 352 1601 L 352 353 C 352 340.99267578125 351.3885803222656 328.88330078125 350.1826171875 317.0087890625 C 348.9942932128906 305.306396484375 347.1995239257812 293.54736328125 344.8485717773438 282.05859375 C 340.2240600585938 259.4586181640625 333.3233337402344 237.228515625 324.3385620117188 215.9859619140625 C 315.5166625976562 195.1287841796875 304.5976257324219 175.011962890625 291.884521484375 156.194091796875 C 279.2921447753906 137.5548095703125 264.8304748535156 120.02734375 248.9016723632812 104.098388671875 C 232.9726257324219 88.1693115234375 215.4450073242188 73.7078857421875 196.8057098388672 61.115478515625 C 177.9880981445312 48.40234375 157.8711853027344 37.4832763671875 137.0140533447266 28.661376953125 C 115.7711944580078 19.6766357421875 93.54119873046875 12.7760009765625 70.94143676757812 8.1514892578125 C 59.452392578125 5.800537109375 47.69357299804688 4.0057373046875 35.99118041992188 2.8173828125 C 24.44644165039062 1.6448974609375 12.67916870117188 1.034423828125 1 1.00146484375 M 0 0 C 194.9564361572266 0 353 158.0433349609375 353 353 L 353 1601 C 353 1795.956420898438 194.9564361572266 1954 0 1954 L 0 0 Z" stroke="none" fill="#707070"/></g><g transform="matrix(0.839, -0.545, 0.545, 0.839, -176.638, 743.18)" fill="#fff" opacity="0.02"><path d="M 352.5 1953.5 L 0.5 1953.5 L 0.5 353 C 0.5 340.9757080078125 1.112380981445312 328.8495178222656 2.319999933242798 316.9583435058594 C 3.509999990463257 305.2392883300781 5.307142734527588 293.4635620117188 7.661666870117188 281.9583435058594 C 12.29285717010498 259.3262023925781 19.20333290100098 237.0642852783203 28.20095252990723 215.7911834716797 C 37.03547668457031 194.9042816162109 47.97000122070312 174.7588043212891 60.70119094848633 155.9142913818359 C 73.31143188476562 137.2485656738281 87.7933349609375 119.6964263916016 103.745002746582 103.745002746582 C 119.6964263916016 87.7933349609375 137.2485656738281 73.31143188476562 155.9142913818359 60.70119094848633 C 174.7588043212891 47.97000122070312 194.9042816162109 37.03547668457031 215.7911834716797 28.20095252990723 C 237.0642852783203 19.20333290100098 259.3262023925781 12.29285717010498 281.9583435058594 7.661666870117188 C 293.4635620117188 5.307142734527588 305.2392883300781 3.509999990463257 316.9583435058594 2.319999933242798 C 328.6847839355469 1.129112482070923 340.6395874023438 0.5171040296554565 352.5 0.5003733038902283 L 352.5 1953.5 Z" stroke="none"/><path d="M 352 1.00146484375 C 340.3208312988281 1.034423828125 328.5535583496094 1.6448974609375 317.0088195800781 2.8173828125 C 305.3064270019531 4.0057373046875 293.547607421875 5.800537109375 282.0585632324219 8.1514892578125 C 259.4588012695312 12.7760009765625 237.2288208007812 19.6766357421875 215.9859466552734 28.661376953125 C 195.1288146972656 37.4832763671875 175.0119018554688 48.40234375 156.1942901611328 61.115478515625 C 137.5549926757812 73.7078857421875 120.0273742675781 88.1693115234375 104.0983276367188 104.098388671875 C 88.16952514648438 120.02734375 73.70785522460938 137.5548095703125 61.115478515625 156.194091796875 C 48.40237426757812 175.011962890625 37.48333740234375 195.1287841796875 28.66143798828125 215.9859619140625 C 19.67666625976562 237.228515625 12.77593994140625 259.4586181640625 8.15142822265625 282.05859375 C 5.80047607421875 293.54736328125 4.005706787109375 305.306396484375 2.8173828125 317.0087890625 C 1.611419677734375 328.88330078125 1 340.99267578125 1 353 L 1 1953 L 352 1953 L 352 1.00146484375 M 353 0 L 353 1954 L 0 1954 L 0 353 C 0 158.0433349609375 158.0435638427734 0 353 0 Z" stroke="none" fill="#707070"/></g><g transform="matrix(0.839, -0.545, 0.545, 0.839, -587.638, -632.762)" fill="#fff" opacity="0.02"><path d="M 0.5 1953.499633789062 L 0.5 0.5 L 352.5 0.5 L 352.5 1601 C 352.5 1613.024291992188 351.8876342773438 1625.150512695312 350.6799926757812 1637.041625976562 C 349.489990234375 1648.7607421875 347.69287109375 1660.536376953125 345.3383483886719 1672.041625976562 C 340.7071533203125 1694.673828125 333.7966613769531 1716.935668945312 324.7990417480469 1738.208862304688 C 315.9645385742188 1759.095703125 305.0299987792969 1779.241455078125 292.2987976074219 1798.085693359375 C 279.6885681152344 1816.75146484375 265.2066650390625 1834.303833007812 249.2550048828125 1850.255249023438 C 233.3035736083984 1866.206665039062 215.7514343261719 1880.688598632812 197.0857086181641 1893.298828125 C 178.2411956787109 1906.030029296875 158.0957183837891 1916.964477539062 137.2088165283203 1925.799072265625 C 115.9357147216797 1934.796630859375 93.67381286621094 1941.707153320312 71.04166412353516 1946.33837890625 C 59.53643035888672 1948.69287109375 47.76071548461914 1950.489990234375 36.04166793823242 1951.680053710938 C 24.31522750854492 1952.870849609375 12.36041069030762 1953.48291015625 0.5 1953.499633789062 Z" stroke="none"/><path d="M 1 1 L 1 1952.99853515625 C 12.67916870117188 1952.965576171875 24.44644165039062 1952.355102539062 35.99118041992188 1951.1826171875 C 47.69357299804688 1949.994262695312 59.452392578125 1948.199462890625 70.94143676757812 1945.8486328125 C 93.54119873046875 1941.223999023438 115.7711944580078 1934.323364257812 137.0140533447266 1925.338623046875 C 157.8711853027344 1916.516723632812 177.9880981445312 1905.59765625 196.8057098388672 1892.884521484375 C 215.4450073242188 1880.292114257812 232.9726257324219 1865.830444335938 248.9016723632812 1849.901611328125 C 264.8304748535156 1833.97265625 279.2921447753906 1816.445068359375 291.884521484375 1797.8056640625 C 304.5976257324219 1778.988037109375 315.5166625976562 1758.871215820312 324.3385620117188 1738.014038085938 C 333.3233337402344 1716.771240234375 340.2240600585938 1694.541259765625 344.8485717773438 1671.94140625 C 347.1995239257812 1660.452392578125 348.9942932128906 1648.693603515625 350.1826171875 1636.9912109375 C 351.3885803222656 1625.11669921875 352 1613.00732421875 352 1601 L 352 1 L 1 1 M 0 0 L 353 0 L 353 1601 C 353 1795.956420898438 194.9564361572266 1954 0 1954 L 0 0 Z" stroke="none" fill="#707070"/></g></g></svg>