<svg xmlns="http://www.w3.org/2000/svg" xmlns:xlink="http://www.w3.org/1999/xlink" width="151" height="150.13" viewBox="0 0 151 150.13"><defs><linearGradient id="a" x1="0.105" y1="0.124" x2="0.839" y2="0.823" gradientUnits="objectBoundingBox"><stop offset="0" stop-color="#eebe47"/><stop offset="0.12" stop-color="#f8db76"/><stop offset="0.21" stop-color="#ffee96"/><stop offset="0.446" stop-color="#a2621e"/><stop offset="0.667" stop-color="#eea54c"/><stop offset="1" stop-color="#eebe47"/></linearGradient><linearGradient id="b" x1="0.13" y1="0.912" x2="0.862" y2="0.096" xlink:href="#a"/><radialGradient id="c" cx="0.165" cy="0.094" r="0.91" gradientTransform="translate(0)" gradientUnits="objectBoundingBox"><stop offset="0" stop-color="#304053"/><stop offset="0.226" stop-color="#2c3c4f"/><stop offset="0.516" stop-color="#0d1d30"/><stop offset="1" stop-color="#060d29"/></radialGradient><linearGradient id="d" x1="-0.126" y1="-0.065" x2="1.165" y2="1.101" xlink:href="#a"/><radialGradient id="e" cx="0.894" cy="0.152" r="0.91" gradientTransform="translate(0.254 -0.074) rotate(88.093)" xlink:href="#c"/><radialGradient id="f" cx="0.231" cy="0.067" r="1.226" gradientTransform="translate(-0.001)" gradientUnits="objectBoundingBox"><stop offset="0" stop-color="#fff1d1"/><stop offset="0.054" stop-color="#ffc94c"/><stop offset="0.14" stop-color="#a2621e"/><stop offset="0.163" stop-color="#955a1b"/><stop offset="0.25" stop-color="#6e4214"/><stop offset="0.343" stop-color="#4c2e0e"/><stop offset="0.441" stop-color="#301d08"/><stop offset="0.546" stop-color="#1a1004"/><stop offset="0.663" stop-color="#0b0702"/><stop offset="0.798" stop-color="#020100"/><stop offset="1"/></radialGradient><linearGradient id="g" x1="-5.177" y1="-2.87" x2="7.266" y2="4.723" xlink:href="#a"/><linearGradient id="h" x1="-3.034" y1="-1.562" x2="9.406" y2="6.028" xlink:href="#a"/><linearGradient id="i" x1="-0.359" y1="0.164" x2="1.252" y2="0.889" xlink:href="#a"/></defs><g transform="translate(-67.09 -65.89)"><path d="M204.944,180.691a10.79,10.79,0,0,1-7.374,9.7,16.943,16.943,0,0,0-9.976,9.227,10.788,10.788,0,0,1-10.249,6.6,16.949,16.949,0,0,0-12.531,5.259,10.786,10.786,0,0,1-11.886,2.691,16.955,16.955,0,0,0-13.575.654,10.781,10.781,0,0,1-12.09-1.532,16.947,16.947,0,0,0-12.98-4.026,10.789,10.789,0,0,1-10.836-5.578,16.951,16.951,0,0,0-10.818-8.222,10.787,10.787,0,0,1-8.275-8.949A16.953,16.953,0,0,0,77,175.087a10.787,10.787,0,0,1-4.717-11.235,16.954,16.954,0,0,0-3-13.255,10.784,10.784,0,0,1-.587-12.173,16.962,16.962,0,0,0,1.711-13.481,10.78,10.78,0,0,1,3.61-11.64,16.953,16.953,0,0,0,6.218-12.082,10.782,10.782,0,0,1,7.375-9.7,16.949,16.949,0,0,0,9.977-9.228,10.788,10.788,0,0,1,10.249-6.595,16.951,16.951,0,0,0,12.531-5.259,10.788,10.788,0,0,1,11.885-2.693,16.942,16.942,0,0,0,13.574-.655,10.786,10.786,0,0,1,12.09,1.534A16.954,16.954,0,0,0,170.9,72.647a10.789,10.789,0,0,1,10.836,5.578,16.952,16.952,0,0,0,10.818,8.222,10.784,10.784,0,0,1,8.274,8.948,16.953,16.953,0,0,0,7.354,11.427A10.787,10.787,0,0,1,212.9,118.06a16.956,16.956,0,0,0,3,13.255,10.787,10.787,0,0,1,.587,12.174,16.952,16.952,0,0,0-1.711,13.48,10.781,10.781,0,0,1-3.61,11.638A16.961,16.961,0,0,0,204.944,180.691Z" fill="url(#a)"/><path d="M73.307,141.377a69.74,69.74,0,1,1,69.74,69.74A69.74,69.74,0,0,1,73.307,141.377Z" transform="translate(-0.457 -0.423)" fill="url(#b)"/><path d="M210.867,141.543a67.654,67.654,0,1,1-67.655-67.654A67.655,67.655,0,0,1,210.867,141.543Z" transform="translate(-0.623 -0.588)" fill="url(#c)"/><path d="M80.137,141.879a63.413,63.413,0,1,1,63.412,63.414A63.412,63.412,0,0,1,80.137,141.879Z" transform="translate(-0.959 -0.925)" fill="url(#d)"/><circle cx="61.501" cy="61.501" r="61.501" transform="translate(79.078 200.374) rotate(-88.093)" fill="url(#e)"/><path d="M100.449,193.957l42.77-52.414L99.056,192.772C99.519,193.17,99.977,193.571,100.449,193.957Zm-5.808-5.351,48.578-47.063-49.84,45.741C93.792,187.732,94.216,188.168,94.641,188.606Zm33.877,18.972,14.7-66.035L126.74,207.167C127.329,207.314,127.924,207.445,128.518,207.578Zm-14.845-5.161,29.545-60.874-31.175,60.04C112.585,201.863,113.124,202.15,113.674,202.417Zm22.591,6.427,6.954-67.3-8.768,67.07C135.055,208.692,135.655,208.781,136.265,208.844Zm-15.316-3.416,22.271-63.885-23.991,63.262C119.8,205.021,120.371,205.227,120.948,205.428ZM76.765,154.2l66.454-12.658L76.443,152.4C76.54,153,76.651,153.6,76.765,154.2Zm-1.009-7.819,67.463-4.839-67.578,3.015C75.667,145.169,75.712,145.775,75.756,146.382Zm2.9,15.432,64.561-20.271-65.07,18.513C78.317,160.643,78.476,161.234,78.658,161.814Zm10.85,20.848,53.711-41.12-54.8,39.652C88.775,181.688,89.137,182.179,89.508,182.662Zm-4.42-6.51,58.131-34.609L84.176,174.568C84.474,175.1,84.775,175.629,85.087,176.152Zm-3.625-6.989,61.757-27.62L80.728,167.489C80.963,168.053,81.213,168.607,81.462,169.163ZM143.219,209.2c.308,0,.608-.019.915-.024l-.915-67.632-.913,67.632C142.612,209.18,142.912,209.2,143.219,209.2Zm49.84-21.916-49.84-45.74L191.8,188.6C192.223,188.167,192.648,187.732,193.059,187.283Zm4.963-6.088-54.8-39.652,53.711,41.119C197.3,182.179,197.664,181.688,198.022,181.195Zm7.688-13.706-62.491-25.946,61.758,27.62C205.226,168.606,205.476,168.052,205.71,167.489Zm-3.447,7.079-59.044-33.025,58.133,34.607C201.663,175.628,201.964,175.1,202.263,174.568ZM210,152.4l-66.776-10.858L209.673,154.2C209.787,153.6,209.9,153,210,152.4Zm-1.707,7.655-65.069-18.513,64.562,20.271C207.962,161.234,208.121,160.642,208.288,160.056ZM75.641,138.523l67.578,3.019L75.756,136.7C75.713,137.306,75.668,137.912,75.641,138.523Zm91.567,66.283-23.989-63.263,22.271,63.885C166.066,205.227,166.639,205.022,167.208,204.806Zm20.176-12.037-44.165-51.226,42.771,52.412C186.463,193.57,186.922,193.169,187.384,192.769Zm-35.4,15.844-8.768-67.07,6.954,67.3C150.782,208.781,151.383,208.692,151.987,208.613Zm7.712-1.446-16.48-65.624,14.7,66.035C158.516,207.445,159.11,207.313,159.7,207.167Zm21.453-9.6-37.933-56.025,36.4,57.016C180.13,198.232,180.648,197.909,181.152,197.567Zm-6.758,4.013-31.176-60.038,29.546,60.874C173.314,202.15,173.854,201.863,174.395,201.581Zm-67.572-3.021,36.4-57.017-37.931,56.027C105.792,197.91,106.309,198.232,106.822,198.56Zm79.167-109.43-42.771,52.413,44.161-51.23C186.92,89.916,186.46,89.515,185.989,89.129Zm-6.374-4.6-36.4,57.016L181.15,85.517C180.646,85.176,180.128,84.855,179.615,84.527ZM191.8,94.481l-48.58,47.062L193.057,95.8C192.645,95.352,192.221,94.917,191.8,94.481ZM165.489,77.66l-22.271,63.883,23.989-63.261Q166.355,77.958,165.489,77.66Zm31.439,22.763-53.709,41.12,54.8-39.654C197.662,101.4,197.3,100.9,196.928,100.423ZM172.765,80.671l-29.546,60.872L174.394,81.5C173.852,81.223,173.314,80.938,172.765,80.671Zm32.209,33.249-61.755,27.623,62.49-25.949C205.475,115.031,205.224,114.476,204.974,113.92Zm5.708,22.779-67.463,4.844,67.578-3.019C210.77,137.912,210.725,137.306,210.682,136.7Zm-1.008-7.811-66.455,12.655,66.775-10.858C209.9,130.082,209.787,129.485,209.674,128.888Zm1.123,15.669-67.578-3.015,67.464,4.839C210.725,145.775,210.771,145.169,210.8,144.557Zm-3.018-23.29-64.56,20.275,65.069-18.513C208.121,122.442,207.962,121.85,207.779,121.268ZM157.92,75.509l-14.7,66.033L159.7,75.921C159.11,75.773,158.514,75.642,157.92,75.509Zm43.429,31.422-58.131,34.611,59.041-33.025C201.963,107.985,201.662,107.455,201.349,106.932ZM105.29,85.516l37.929,56.027L106.825,84.525C106.312,84.853,105.793,85.175,105.29,85.516ZM88.42,101.889l54.8,39.654L89.51,100.422Q88.954,101.146,88.42,101.889ZM93.381,95.8l49.838,45.742L94.641,94.479C94.217,94.916,93.792,95.352,93.381,95.8Zm-9.2,12.717,59.04,33.025-58.131-34.61C84.776,107.455,84.476,107.984,84.178,108.518ZM99.059,90.313l44.159,51.23L100.451,89.129C99.979,89.514,99.521,89.915,99.059,90.313Zm51.113-16.069-6.954,67.3,8.768-67.069C151.383,74.395,150.782,74.3,150.173,74.244Zm-69.444,41.35,62.49,25.949L81.464,113.92C81.215,114.476,80.964,115.031,80.729,115.594Zm-2.578,7.434,65.068,18.515-64.56-20.275C78.476,121.85,78.318,122.442,78.151,123.028Zm-1.707,7.656,66.775,10.858L76.765,128.888C76.651,129.485,76.541,130.081,76.443,130.685Zm66.775-56.8c-.307,0-.607.019-.913.024l.913,67.63.915-67.63C143.827,73.908,143.526,73.889,143.219,73.889ZM126.74,75.921l16.479,65.622-14.7-66.033C127.924,75.642,127.329,75.773,126.74,75.921Zm7.711-1.447,8.768,67.069-6.954-67.3C135.655,74.3,135.055,74.395,134.451,74.474Zm-15.223,3.808,23.991,63.261L120.948,77.66Q120.082,77.959,119.228,78.281ZM112.046,81.5l31.173,60.038L113.674,80.671C113.124,80.937,112.586,81.223,112.046,81.5Z" transform="translate(-0.629 -0.588)" opacity="0.2" fill="url(#f)" style="mix-blend-mode:screen;isolation:isolate"/><path d="M189.862,154.4l-4.624-2.739-4.622,2.742,1.175-5.244-4.037-3.548,5.351-.5,2.128-4.935,2.132,4.933,5.35.5-4.033,3.552Z" transform="translate(-8.137 -5.462)" fill="url(#g)"/><path d="M112.5,154.4l-4.625-2.739-4.621,2.742,1.175-5.244-4.035-3.548,5.35-.5,2.128-4.935L110,145.109l5.35.5-4.034,3.552Z" transform="translate(-2.449 -5.462)" fill="url(#h)"/><path d="M162.819,185.042H165.4v1.228H128.329v-1.228h2.577a6.716,6.716,0,0,0,4.848-1.964,6.272,6.272,0,0,0,2.025-4.664V115.2q0-7.485-7.242-7.487H127.47v-1.228q19.022-1.593,27.37-7.855h1.228v79.9a6.169,6.169,0,0,0,1.964,4.6A6.614,6.614,0,0,0,162.819,185.042Z" transform="translate(-4.44 -2.408)" fill="url(#i)"/></g></svg>