<svg xmlns="http://www.w3.org/2000/svg" xmlns:xlink="http://www.w3.org/1999/xlink" width="566.58" height="439.77" viewBox="0 0 566.58 439.77"><defs><radialGradient id="a" cx="0.5" cy="0.5" r="0.5" gradientUnits="objectBoundingBox"><stop offset="0" stop-color="#9e9e9e"/><stop offset="1" stop-color="#fff"/></radialGradient></defs><g transform="translate(101.161 -1934.593)"><path d="M897.418,2075.046H886.411v-31.573h11.007v-2.317H886.411v-31.573h11.007v-2.317H886.411v-30.672h-2.317v30.672H852.521v-30.672H850.2v30.672H818.631v-30.672h-2.317v30.672H784.74v-30.672h-2.317v30.672H750.85v-30.672h-2.318v30.672H716.96v-30.672h-2.317v30.672H683.07v-30.672h-2.318v30.672H649.179v-30.672h-2.317v30.672H615.288v-30.672h-2.317v30.672H581.4v-30.672h-2.318v30.672H547.508v-30.672h-2.317v30.672H513.618v-30.672H511.3v30.672H479.727v-30.672H477.41v30.672H445.837v-30.672H443.52v30.672H411.947v-30.672h-2.318v30.672H378.056v-30.672h-2.317v30.672H344.166v-30.672h-2.318v30.672H330.84v2.317h11.009v31.573H330.84v2.317h11.009v31.573H330.84v2.318h0v.1h11.009v31.477H330.84v2.317h0v.1h11.009v31.477H330.84v2.317h0v.1h11.009v31.476H330.84v2.318h0v.1h11.009v31.477h-11.01v2.317h0v.1h11.009V2244.5h-11.01v2.318h0v.1h11.009v31.477h-11.01v2.318h0v.1h11.009v31.477h-11.01v2.317h0v.1h11.01v31.573h-11.01v2.317h11.01v31.573h-11.01v2.318h11.01v31.573h-11.01v2.317H897.418v-2.317H886.411v-31.573h11.007v-2.318H886.411v-31.573h11.007v-2.318H886.411v-31.573h11.007v-2.317h0v-.1H886.411V2280.8h11.007v-2.318h0v-.1H886.411v-31.477h11.007v-2.317h0v-.1H886.411v-31.477h11.007V2210.7h0v-.1H886.411v-31.477h11.007v-2.318h0v-.1H886.411V2145.24h11.007v-2.317h0v-.1H886.411V2111.35h11.007v-2.318h0v-.1H886.411V2077.46h11.007v-2.317h0ZM850.2,2108.936H818.631V2077.46H850.2v31.477Zm-472.147-31.477h31.573v31.477H378.056v-31.477Zm438.258,31.477H784.74V2077.46h31.574v31.477Zm-404.367-31.477H443.52v31.476H411.947v-31.477Zm370.476,31.477H750.85V2077.46h31.573v31.477ZM445.837,2077.46H477.41v31.476H445.837V2077.46Zm302.7,31.477H716.96V2077.46h31.573v31.477ZM479.727,2077.46H511.3v31.476H479.727V2077.46Zm234.915,31.477H683.07V2077.46h31.573v31.477ZM581.4,2142.826V2111.35h31.573v31.477Zm31.573,2.414v31.477H581.4V2145.24Zm0,33.891v31.476H581.4v-31.476Zm0,33.89V2244.5H581.4v-31.477Zm0,33.891v31.476H581.4v-31.476Zm2.317,31.476v-31.476h31.574v31.476Zm0-33.89v-31.477h31.574V2244.5Zm0-33.891v-31.476h31.574v31.476Zm0-33.89V2145.24h31.574v31.477Zm0-33.891V2111.35h31.574v31.477Zm-36.208-31.477v31.477H547.508V2111.35Zm0,33.89v31.477H547.508V2145.24Zm0,33.891v31.476H547.508V2179.13Zm0,33.89V2244.5H547.508v-31.477Zm0,33.891v31.476H547.508v-31.476Zm0,33.89v31.477H547.508V2280.8Zm2.318,0h31.573v31.477H581.4Zm33.89,0h31.574v31.477H615.288Zm33.891,0h31.573v31.477H649.179Zm0-2.414v-31.476h31.573v31.477Zm0-33.89v-31.477h31.573V2244.5Zm0-33.891v-31.476h31.573v31.476Zm0-33.89V2145.24h31.573v31.477Zm0-33.891V2111.35h31.573v31.477ZM545.191,2111.35v31.477H513.618V2111.35Zm0,33.89v31.477H513.618V2145.24Zm0,33.89v31.477H513.618V2179.13Zm0,33.89V2244.5H513.618v-31.477Zm0,33.891v31.476H513.618v-31.476Zm0,33.89v31.477H513.618V2280.8Zm137.879,31.477V2280.8h31.573v31.477Zm0-33.89v-31.477h31.573v31.477Zm0-33.891v-31.477h31.573V2244.5Zm0-33.891v-31.476h31.573v31.476Zm0-33.89V2145.24h31.573v31.477Zm0-33.891V2111.35h31.573v31.477Zm-2.318-64.465v30.575H649.179V2077.46h31.573Zm-33.89,0v30.574H615.288V2077.46h31.574Zm-33.891,0v30.574H581.4V2077.46h31.573Zm-33.891,0v30.574H547.508V2077.46h31.573Zm-33.89,0v30.574H513.618V2077.46h31.573ZM511.3,2111.35v31.477H479.727V2111.35Zm0,33.89v31.477H479.727V2145.24Zm0,33.89v31.477H479.727V2179.13Zm0,33.89V2244.5H479.727v-31.477Zm0,33.891v31.476H479.727v-31.476Zm0,33.89v31.477H479.727V2280.8Zm205.659,31.477V2280.8h31.573v31.477Zm0-33.89v-31.477h31.573v31.477Zm0-33.891v-31.477h31.573V2244.5Zm0-33.891v-31.476h31.573v31.476Zm0-33.89V2145.24h31.573v31.477Zm0-33.891V2111.35h31.573v31.477ZM477.41,2111.35v31.477H445.837V2111.35Zm0,33.89v31.477H445.837V2145.24Zm0,33.89v31.477H445.837V2179.13Zm0,33.89V2244.5H445.837v-31.477Zm0,33.891v31.476H445.837v-31.476Zm0,33.89v31.477H445.837V2280.8Zm0,33.89v31.573H445.837v-31.573Zm2.317,0H511.3v31.573H479.727Zm33.891,0h31.573v31.573H513.618Zm33.89,0h31.573v31.573H547.508Zm33.891,0h31.573v31.573H581.4Zm33.89,0h31.574v31.573H615.288Zm33.891,0h31.573v31.573H649.179Zm33.891,0h31.573v31.573H683.07Zm33.89,0h31.573v31.573H716.96Zm33.891,0h31.573v31.573H750.85Zm0-2.414V2280.8h31.573v31.477Zm0-33.89v-31.477h31.573v31.477Zm0-33.891v-31.477h31.573V2244.5Zm0-33.891v-31.476h31.573v31.476Zm0-33.89V2145.24h31.573v31.477Zm0-33.891V2111.35h31.573v31.477ZM443.52,2111.35v31.477H411.947V2111.35Zm0,33.89v31.477H411.947V2145.24Zm0,33.89v31.477H411.947V2179.13Zm0,33.89V2244.5H411.947v-31.477Zm0,33.891v31.476H411.947v-31.477Zm0,33.89v31.477H411.947V2280.8Zm0,33.89v31.573H411.947v-31.573Zm0,33.89v31.573H411.947v-31.573Zm2.317,0H477.41v31.573H445.837Zm33.891,0H511.3v31.573H479.727Zm33.891,0h31.573v31.573H513.618Zm33.89,0h31.573v31.573H547.508Zm33.891,0h31.573v31.573H581.4Zm33.89,0h31.574v31.573H615.288Zm33.891,0h31.573v31.573H649.179Zm33.891,0h31.573v31.573H683.07Zm33.89,0h31.573v31.573H716.96Zm33.891,0h31.573v31.573H750.85Zm33.89,0h31.574v31.573H784.74Zm0-2.318v-31.573h31.574v31.573Zm0-33.987V2280.8h31.574v31.477Zm0-33.89v-31.477h31.574v31.477Zm0-33.891v-31.477h31.574V2244.5Zm0-33.891v-31.476h31.574v31.477Zm0-33.89V2145.24h31.574v31.477Zm0-33.891V2111.35h31.574v31.477Zm33.891-67.781v-31.573H850.2v31.573Zm-2.317,0H784.74v-31.573h31.574Zm-33.891,0H750.85v-31.573h31.573Zm-33.891,0H716.96v-31.573h31.573Zm-33.89,0H683.07v-31.573h31.573Zm-33.891,0H649.179v-31.573h31.573Zm-33.89,0H615.288v-31.573h31.574Zm-33.891,0H581.4v-31.573h31.573Zm-33.891,0H547.508v-31.573h31.573Zm-33.89,0H513.618v-31.573h31.573Zm-33.891,0H479.727v-31.573H511.3Zm-33.89,0H445.837v-31.573H477.41Zm-33.891,0H411.947v-31.573H443.52Zm-33.891,0H378.056v-31.573h31.573Zm0,36.3v31.477H378.056V2111.35Zm0,33.89v31.477H378.056V2145.24Zm0,33.89v31.477H378.056V2179.13Zm0,33.89V2244.5H378.056v-31.477Zm0,33.89v31.477H378.056v-31.477Zm0,33.891v31.477H378.056V2280.8Zm0,33.89v31.573H378.056v-31.573Zm0,33.89v31.573H378.056v-31.573Zm0,33.891v31.573H378.056v-31.573Zm2.318,0H443.52v31.573H411.947Zm33.89,0H477.41v31.573H445.837Zm33.891,0H511.3v31.573H479.727Zm33.891,0h31.573v31.573H513.618Zm33.89,0h31.573v31.573H547.508Zm33.891,0h31.573v31.573H581.4Zm33.89,0h31.574v31.573H615.288Zm33.891,0h31.573v31.573H649.179Zm33.891,0h31.573v31.573H683.07Zm33.89,0h31.573v31.573H716.96Zm33.891,0h31.573v31.573H750.85Zm33.89,0h31.574v31.573H784.74Zm33.891,0H850.2v31.573H818.631Zm0-2.317v-31.573H850.2v31.573Zm0-33.891v-31.573H850.2v31.573Zm0-33.987V2280.8H850.2v31.477Zm0-33.89v-31.477H850.2v31.477Zm0-33.891v-31.477H850.2V2244.5Zm0-33.89v-31.477H850.2v31.477Zm0-33.891V2145.24H850.2v31.477Zm0-33.891V2111.35H850.2v31.477Zm65.464-67.781H852.521v-31.573h31.573Zm0-65.464v31.573H852.521v-31.573Zm-33.891,0v31.573H818.631v-31.573Zm-33.89,0v31.573H784.74v-31.573Zm-33.891,0v31.573H750.85v-31.573Zm-33.891,0v31.573H716.96v-31.573Zm-33.89,0v31.573H683.07v-31.573Zm-33.891,0v31.573H649.179v-31.573Zm-33.89,0v31.573H615.288v-31.573Zm-33.891,0v31.573H581.4v-31.573Zm-33.891,0v31.573H547.508v-31.573Zm-33.89,0v31.573H513.618v-31.573Zm-33.891,0v31.573H479.727v-31.573Zm-33.89,0v31.573H445.837v-31.573Zm-33.891,0v31.573H411.947v-31.573Zm-33.891,0v31.573H378.056v-31.573Zm-65.463,0h31.573v31.573H344.166Zm0,33.89h31.573v31.573H344.166Zm0,34.889v-.9h31.573v31.477H344.166Zm0,32.988h31.573v31.477H344.166Zm0,33.89h31.573v31.477H344.166Zm0,33.89h31.573v31.477H344.166Zm0,33.89h31.573V2244.5H344.166Zm0,33.89h31.573v31.477H344.166Zm0,33.891h31.573v31.477H344.166Zm0,33.89h31.573v31.573H344.166Zm0,33.89h31.573v31.573H344.166Zm0,33.891h31.573v31.573H344.166Zm539.928,31.574H852.521v-31.573h31.573Zm0-33.891H852.521v-31.573h31.573Zm0-33.891H852.521v-31.573h31.573Zm0-33.987H852.521V2280.8h31.573Zm0-33.89H852.521v-31.477h31.573Zm0-33.891H852.521v-31.477h31.573Zm0-33.89H852.521v-31.477h31.573Zm0-33.891H852.521V2145.24h31.573Zm0-33.891H852.521V2111.35h31.573Zm0-64.465v30.575H852.521V2077.46h31.573Z" transform="translate(-432 -42)" opacity="0.17" fill="url(#a)" style="mix-blend-mode:multiply;isolation:isolate"/></g></svg>