<svg xmlns="http://www.w3.org/2000/svg" width="106.147" height="127.954" viewBox="0 0 106.147 127.954"><g transform="translate(0.501 0.501)"><path d="M587.453,511.679c-3.073,0-6.145-.006-9.218.006-.482,0-.964.081-1.652.143a15.223,15.223,0,0,0,.625,1.449,94.557,94.557,0,0,0,10.949,15.283c2.511,2.864,5.188,5.6,7.947,8.226a67.476,67.476,0,0,0,6.545,5.41c2.014,1.485,4.2,2.743,6.335,4.058a2.992,2.992,0,0,1,1.464,2.248q.987,6.609,1.98,13.218c.19,1.268.312,1.4,1.59,1.407q2.44.009,4.879.008V511.679Z" transform="translate(-569.641 -436.18)" fill="#fff" stroke="rgba(0,0,0,0)" strokeMiterlimit="10" strokeWidth="1"/><path d="M635.912,348.541a10.042,10.042,0,0,1-7.81-3.716,12.7,12.7,0,0,1-3.143-8.723,3.994,3.994,0,0,1,.031-.7c.346-1.668.706-3.332,1.112-5.23a18.688,18.688,0,0,0,9.415-1.685c.237.317.425.609.612.871V309.408a28.593,28.593,0,0,0-6.949.6c-3.6.831-6.94,2.091-9.424,5.024a11.4,11.4,0,0,0-2.836,8.633,19.851,19.851,0,0,0,1.819,6.417c.639,1.4,1.347,2.782.6,4.368a18.35,18.35,0,0,0,3.726,13.238c.939,1.195,2.033,2.268,3.163,3.514a4.032,4.032,0,0,1-2,1.624c-3.984,1.681-7.959,3.383-11.953,5.037a25.114,25.114,0,0,0-6.416,3.611,5.44,5.44,0,0,0-1.775,2.186c.172.125.241.218.317.225.416.035.834.068,1.251.068q15.241-.024,30.483-.052V348.537C636.057,348.538,635.986,348.541,635.912,348.541Z" transform="translate(-586.874 -309.401)" fill="#fff" stroke="rgba(0,0,0,0)" strokeMiterlimit="10" strokeWidth="1"/><path d="M607.21,468.948H563.094c-.419,0-.838-.013-1.256.006a3.664,3.664,0,0,0-3.812,3.79c-.033.743.043,1.493-.018,2.233-.271,3.253,1.595,4.969,4.974,4.961q22.128-.051,44.257-.046V468.948Z" transform="translate(-557.981 -409.397)" fill="#fff" stroke="rgba(0,0,0,0)" strokeMiterlimit="10" strokeWidth="1"/><g transform="translate(49.256 0.007)" opacity="0.39"><path d="M696.383,561.482c.446-2.983.866-5.971,1.383-8.942a9.091,9.091,0,0,0-.439-5.021,25.339,25.339,0,0,1-1.243-13.18c1.5-9.449,6.658-16.273,15.091-20.674,1.179-.615,2.428-1.1,3.644-1.638l-.056-.346h-24.81v51.454q2.309,0,4.617-.006C696.065,563.127,696.151,563.025,696.383,561.482Z" transform="translate(-689.952 -436.19)" fill="#fff" stroke="rgba(0,0,0,0)" strokeMiterlimit="10" strokeWidth="1"/><path d="M721.848,363.781a1.237,1.237,0,0,0,.1-.2c-.232-.91-1.025-1.431-1.7-2.047-2.107-1.926-4.719-2.935-7.292-4.016q-5.594-2.35-11.187-4.7a3.075,3.075,0,0,1-1.951-1.781,19.238,19.238,0,0,0,5.758-7.991,14.885,14.885,0,0,0,1.073-7.929c-.4-2.335.326-4.292,1.04-6.335a17.924,17.924,0,0,0,.02-11.227,7.493,7.493,0,0,0-2.9-4.32,6.671,6.671,0,0,0-4.061-1.24,4.441,4.441,0,0,1-2.613-.748A12.171,12.171,0,0,0,692.3,309.5c-.784-.035-1.568-.063-2.353-.076v19.953a3.53,3.53,0,0,0,.5.582,2.929,2.929,0,0,0,2.987.593,20.865,20.865,0,0,0,6.765-3.358,14.285,14.285,0,0,1,.312,1.832,51.133,51.133,0,0,0,.464,6.09,11.719,11.719,0,0,1-2.7,9.234,10.3,10.3,0,0,1-8.32,4.2v15.362q15.89-.027,31.781-.055A.193.193,0,0,0,721.848,363.781Z" transform="translate(-689.952 -309.42)" fill="#fff" stroke="rgba(0,0,0,0)" strokeMiterlimit="10" strokeWidth="1"/><path d="M741.723,522.888a22.527,22.527,0,1,0,22.349,22.533A22.518,22.518,0,0,0,741.723,522.888Zm3.954,33.638a3.529,3.529,0,0,0-1.8,2.126,2.425,2.425,0,0,1-4.577,0,3.782,3.782,0,0,0-1.849-2.109,6.228,6.228,0,0,1-3.012-4.465,2.456,2.456,0,0,1,4.6-1.486,10.492,10.492,0,0,0,.688,1.209,2.172,2.172,0,0,0,2.585.822,2.575,2.575,0,0,0,1.61-2.668,2.183,2.183,0,0,0-2.086-1.916,9.01,9.01,0,0,1-4.7-1.562,7.464,7.464,0,0,1-2.039-9.6,7.351,7.351,0,0,1,2.935-2.9,2.173,2.173,0,0,0,1.15-1.473,2.432,2.432,0,0,1,4.758-.082,2.746,2.746,0,0,0,1.444,1.734,6.413,6.413,0,0,1,3.335,4.42,2.562,2.562,0,0,1-1.69,2.858,2.486,2.486,0,0,1-2.815-.98c-.226-.35-.368-.754-.585-1.11a2.383,2.383,0,0,0-4.457,1.313,2.242,2.242,0,0,0,2.056,2.107,13.727,13.727,0,0,0,1.371.245,7.412,7.412,0,0,1,3.077,13.516Z" transform="translate(-708.184 -443.214)" fill="#fff" stroke="rgba(0,0,0,0)" strokeMiterlimit="10" strokeWidth="1"/><path d="M735.462,479.894a3.774,3.774,0,0,0,3.656-3.689c.058-1.253.049-2.514,0-3.768a3.333,3.333,0,0,0-2.465-3.2,7.887,7.887,0,0,0-2.194-.274q-22.254-.023-44.507-.012V479.9q22.127,0,44.254.006C734.625,479.905,735.045,479.923,735.462,479.894Z" transform="translate(-689.952 -409.41)" fill="#fff" stroke="rgba(0,0,0,0)" strokeMiterlimit="10" strokeWidth="1"/></g></g></svg>