<svg xmlns="http://www.w3.org/2000/svg" width="606.295" height="213.826" viewBox="0 0 606.295 213.826"><g transform="translate(-1221.104 -6577.052)"><g transform="translate(1221.104 6577.052)"><g transform="translate(0 0)"><path d="M1113.843-155.723l25.515,79.02h83.278l-67.381,49.128,25.936,79.082L1113.843,2.357l-67.413,49.149,25.562-79.082L1004.628-76.7h49.938c-35.133-24.012-139.881-33.96-254.635-22.16-79.564,8.51-146.182,25.105-183.589,44.33,25.9-25.512,105.881-49.495,206.906-60.2C955.755-128.409,1074.933-112.9,1089-80.414v.374Z" transform="translate(-616.342 155.723)" fill="#ff000a" fillRule="evenodd"/><path d="M757.376-85.148c-.4-2.575-.748-4.755-1.14-6.23l-6.693-42.887-10.719,1.482-7.025-1.108-8.88,14.373L705.195-91.8c-1.154,1.9-2.64,4.449-4.449,7.751C687.071-61.884,676.659-50.8,669.239-50.414l-.719,4.05a32.972,32.972,0,0,0,8.884-1.079,42.193,42.193,0,0,0,7.751-1.859c2.6.726,5.215,1.457,7.459,1.859a31.822,31.822,0,0,0,8.5,1.079l.734-4.05a12.316,12.316,0,0,1-4.453-1.5,3.245,3.245,0,0,1-1.482-2.953c0-1.464.759-3.658,1.834-6.611a85.034,85.034,0,0,1,5.9-10.366l3.367-5.528a41.8,41.8,0,0,0,7.042-.378h14.412a41.916,41.916,0,0,0,7.053.378l.345,4.431a60.687,60.687,0,0,1,.756,7.755,32.182,32.182,0,0,1,.367,5.535c0,2.978-.716,5.564-2.2,6.647-1.522,1.446-4.09,2.2-7.784,2.586l-.755,4.05a62.218,62.218,0,0,0,11.859-1.079,49.767,49.767,0,0,0,10.341-2.219,60.2,60.2,0,0,0,10.733,2.219,58.783,58.783,0,0,0,11.484,1.079l.759-4.05C765.48-50.414,760.664-62.229,757.376-85.148ZM730.7-83.641H718.485c-2.568,0-4.812-.41-7.783-.41,3.359-5.136,6.3-10.319,9.632-15.495a16.051,16.051,0,0,1,2.586-4.071c2.23-4.068,4.827-7.755,7.42-11.787.7,5.151,1.46,10.33,2.191,15.488.737,4.83,1.507,10.337,2.259,15.865C733.67-84.051,732.2-83.641,730.7-83.641Z" transform="translate(-480.852 211.444)" fill="#ec1c24"/><g transform="translate(60.699 76.1)"><path d="M769.736-90.135c4.831,14.419,9.24,24.749,13.3,30.31,4.471,5.906,9.639,8.859,15.567,8.859h.378l-.763,4.046a52.467,52.467,0,0,1-7.006.759,42.028,42.028,0,0,1-6.665.378,46.809,46.809,0,0,1-13.341-1.874,18,18,0,0,1-8.143-5.5C760.089-56.879,757.5-63.526,754.9-72.4a17.321,17.321,0,0,0-1.1-3.32V-91.246a14.369,14.369,0,0,0,8.151-5.147c3.7-4.438,5.935-10.693,5.935-18.1a13.6,13.6,0,0,0-3.723-9.967c-2.578-2.618-5.945-3.708-10.362-3.708v-5.881h9.618c9.25,0,16.649,1.46,21.476,4.741,5.229,3.73,7.783,8.553,7.783,14.815a20.645,20.645,0,0,1-5.956,14.394C782.673-96,777.123-92.735,769.736-90.135ZM753.8-75.715a18.938,18.938,0,0,1-.712-2.953c-1.507-3.7-4.464-5.528-8.895-5.935a25.735,25.735,0,0,1-5.568-.352l-1.133,5.906c-1.068,4.791-1.831,8.9-2.18,11.83a29.724,29.724,0,0,0-.762,7.395,8.613,8.613,0,0,0,1.874,5.9c1.424,1.457,3.661,2.219,7.021,2.953l-1.112,4.05a100.451,100.451,0,0,1-10.362-.737c-3.719-.745-7.4-1.475-11.5-2.561A112.817,112.817,0,0,1,707.9-48a63.418,63.418,0,0,1-11.071,1.079l.7-4.05c8.161-.734,14.074-9.977,17.765-28.08a17.961,17.961,0,0,0,.751-3.316l3.722-16.225c1.094-5.956,2.216-10.729,2.561-14.07a32.46,32.46,0,0,0,.755-7.729c0-2.971-.755-5.19-2.223-6.69-1.5-1.464-4.065-2.23-7.766-2.579l1.118-4.057a99.966,99.966,0,0,1,10.726.737c3.313.723,6.654,1.108,9.992,2.248A81.7,81.7,0,0,1,749-133.339c1.489-.378,3.316-.378,4.8-.712v5.881h-2.927c-.752,0-1.871.36-2.64.36-.353,1.075-.727,2.953-1.471,5.561-.744,2.59-1.5,6.632-2.568,12.157l-4.107,19.958h.748c2.611,0,4.078.392,5.183.392a17.128,17.128,0,0,0,7.783-1.5Z" transform="translate(-468.045 135.9)"/><path d="M660.52-134.565h4.827c0,.676.762,1.453,1.838,2.183,1.51.378,4.1.378,7.783.378h50.339c4.082,0,7.039,0,8.88-.712,1.507-.4,2.586-1.173,2.586-1.849h4.8a14.265,14.265,0,0,0-1.438,4.028,22.976,22.976,0,0,0-2.255,4.464,17.356,17.356,0,0,1,.378,4.377c0,1.5.381,2.957.381,4.46A13.46,13.46,0,0,0,738.26-115a35.516,35.516,0,0,1-.378,5.528h-5.151v-2.568c0-4.435-.773-7.381-2.986-9.654-1.845-1.827-5.568-2.9-11.092-3.7h-7.783c-1.834,7.075-3.705,15.56-6.287,25.9l-.36,2.241-3.356,16.225c-1.486,7.046-2.593,12.218-2.939,15.146a29.036,29.036,0,0,0-.752,7.017c0,2.978.752,5.169,2.2,6.28,1.849,1.457,4.841,2.219,9.276,2.953l-.716,4.05c-3.359,0-7.075-.352-11.135-.737-4.082-.744-8.474-1.475-14.045-2.561-5.179,1.086-9.607,1.816-14.067,2.561-4.453.385-8.531.737-12.236.737l.734-4.05a34.342,34.342,0,0,0,8.51-1.856,13.593,13.593,0,0,0,5.212-3.679,25.81,25.81,0,0,0,3.3-7.773,148.706,148.706,0,0,0,4.068-18.088l3.744-16.225v-.4c2.205-10.718,3.68-19.951,4.8-27.742h-8.542a20.123,20.123,0,0,0-12.172,3.7c-3,2.64-5.589,6.694-7.42,12.222h-5.2a58.16,58.16,0,0,1,2.967-8.467,58.42,58.42,0,0,1,4.061-8.132v-1.9c-.356-.349-.356-1.421-.356-2.561,0-.385.356-.719.356-1.467Z" transform="translate(-580.572 134.565)"/><path d="M704.286-134.377l5.208.777c-.737,1.467-1.511,3.352-2.226,4.417a17.432,17.432,0,0,1-2.582,4.1v1.806a35.556,35.556,0,0,1-.4,6.309,52.782,52.782,0,0,1-1.5,7.006h-5.528v-1.464c0-5.543-1.1-9.977-4.071-12.945-2.583-2.953-6.668-4.442-11.488-4.442-4.409,0-8.514,1.111-11.456,4.075a12.627,12.627,0,0,0-4.449,9.967c0,5.525,5.161,11.071,15.9,15.513a53.5,53.5,0,0,1,6.313,2.971c5.172,2.568,9.247,5.517,11.855,9.226a21.77,21.77,0,0,1,3.691,12.193c0,8.866-3.691,15.89-11.125,21.793-7.385,5.521-17.023,8.506-28.475,8.506a50.815,50.815,0,0,1-14.815-2.241c-4.809-1.083-7.406-1.831-7.406-1.831a4.832,4.832,0,0,0-2.191.748c-.759.338-1.158,1.083-1.91,2.176l-4.42-1.439a19.3,19.3,0,0,1,1.518-4.463c1.054-1.816,1.8-3.665,3.32-5.877v-4.442a37.372,37.372,0,0,1,.335-5.924c.4-2.183.762-4.784,1.158-7.747h5.892v5.564c0,6.24,1.489,11.067,4.837,14.387,2.928,3.345,7.751,5.15,13.29,5.15,5.2,0,9.621-1.471,12.977-4.424A14.339,14.339,0,0,0,681.7-66.007a12.31,12.31,0,0,0-2.942-8.132c-2.216-2.226-7-5.179-14.8-8.467-7.042-3.341-12.24-6.683-15.175-9.977-2.579-3.338-4.086-7.762-4.086-13.315,0-8.488,3.723-15.506,10.366-20.663,6.676-5.183,15.894-7.816,27.4-7.816A53.9,53.9,0,0,1,693.19-133.2c4.071.712,5.923,1.072,6.3,1.072a8.29,8.29,0,0,0,2.935-.36C703.178-133.2,703.926-133.6,704.286-134.377Z" transform="translate(-633.218 135.053)"/><g transform="translate(1.856 97.867)"><path d="M793.979-68.844v-3.284a4.876,4.876,0,0,0,2.244-.352,7.8,7.8,0,0,0,1.86-1.129c.367-.734.367-1.09.737-1.831,0-.777.371-1.5.371-2.593v-1.849a6.39,6.39,0,0,1-2.968,1.849,3.182,3.182,0,0,1-2.244.719v-3.313a6.423,6.423,0,0,0,2.633-.766,9.46,9.46,0,0,0,2.579-1.432V-94.683a9.3,9.3,0,0,0-2.579-.7,3.862,3.862,0,0,0-1.87-.388h-.763v-3.323a5.455,5.455,0,0,1,2.633.378,21.367,21.367,0,0,0,2.579,1.079v-.745h3.3v18.858c0,3.665-.716,6.305-2.194,8.111A8.836,8.836,0,0,1,793.979-68.844Zm0-30.249v3.323a3.9,3.9,0,0,0-3.312,1.849c-1.1,1.464-1.478,3.3-1.478,5.891a12.18,12.18,0,0,0,1.144,5.564,4.119,4.119,0,0,0,3.647,1.838h0v3.313h-.719a7.075,7.075,0,0,1-5.536-2.568c-1.482-1.856-2.23-4.809-2.23-8.147a17.608,17.608,0,0,1,.748-4.791c.759-1.1,1.119-2.561,1.834-3.327a5.819,5.819,0,0,1,3-2.234,7.411,7.411,0,0,1,2.906-.712Zm0,26.965v3.284h-.719a10.483,10.483,0,0,1-2.927-.317c-.766,0-1.852-.4-2.608-.4v-4.046h0a1.294,1.294,0,0,0,1.094.392c.367.342.748.342,1.514.737.334,0,1.111.352,1.5.352h2.147Zm-67.327-4.449v-3.305c.363.36.741.36,1.475.36a15.953,15.953,0,0,0,1.845-.36,5.161,5.161,0,0,0,2.23-.744c.338-.367,1.129-.367,1.482-.766.385-.345.716-.73,1.072-.73h0v3.744c-.356.345-.687.345-1.424.691-.435.374-1.129.374-1.507.752-.737,0-1.086.36-1.853.36h-3.32Zm0-10.708v-2.96h5.172a6.668,6.668,0,0,0-.346-2.575,2.067,2.067,0,0,0-.741-1.5,3.047,3.047,0,0,0-1.5-1.45,4.612,4.612,0,0,0-2.223-.378h-.363v-2.946h.741a7.2,7.2,0,0,1,2.964.378,11.347,11.347,0,0,1,2.539,1.845,8.616,8.616,0,0,1,1.859,3.3,12.8,12.8,0,0,1,.4,4.064v2.223Zm20,10.708a5.81,5.81,0,0,1-4.431-1.457c-1.115-1.489-1.511-2.96-1.511-5.561V-95.38h-2.226v-3h2.226v-6.273h3.32v6.273h6.287v3h-6.287v12.556c0,.7.4,1.086.4,1.831.346.367.723.734,1.108,1.111h3.334a2.661,2.661,0,0,1,1.086-.378h.363v2.946c-.737.378-1.45.378-2.2.737Zm11.463-.36h-3.349V-98.38h3.349v21.444Zm0-25.116h-3.694v-3.7h3.694v3.7Zm22.2,25.116h-3.334V-92.071a15.009,15.009,0,0,0-.363-1.849,2.628,2.628,0,0,0-1.457-1.46,17.886,17.886,0,0,0-1.845-.388,7.581,7.581,0,0,0-2.615.719c-.737.73-1.874,1.129-2.612,1.845v16.268h-3.313V-98.38h3.313v2.234a8.022,8.022,0,0,1,2.989-2.234,12.855,12.855,0,0,1,2.968-.712,5.412,5.412,0,0,1,4.8,2.223c1.1,1.1,1.471,3.3,1.471,5.891Zm-53.66-22.156v2.946a14.979,14.979,0,0,0-1.838.378,6.4,6.4,0,0,0-1.849,1.45,9.648,9.648,0,0,0-1.14,1.863,4.455,4.455,0,0,0-.392,2.212h5.219v2.96h-5.219c0,2.593.392,4.46,1.867,5.546a3.952,3.952,0,0,0,3.352,1.856v3.305c-2.586-.36-4.431-1.111-5.942-2.946-1.856-1.87-2.593-4.453-2.593-8.125a15.229,15.229,0,0,1,2.227-8.5c1.877-1.849,3.722-2.946,6.308-2.946ZM670-76.577v-3.305a4.69,4.69,0,0,0,2.237-.378c.741-.734,1.838-1.133,2.575-1.863v-6.233a10.2,10.2,0,0,1-3.323.327c-.364,0-.748.381-1.489.381v-2.978a20.418,20.418,0,0,1,4.812-.356v-.727a13.593,13.593,0,0,0-.338-2.212c-.4-.4-.756-.762-1.108-1.129a3.194,3.194,0,0,0-1.514-.719H670v-3.323a8.276,8.276,0,0,1,3.367.374c.709.338,1.841.723,2.59,1.083a6.366,6.366,0,0,1,1.464,2.586,7.126,7.126,0,0,1,.77,3.341v14.772h-3.378v-2.2c-.338,0-.737.352-1.094.759a4.906,4.906,0,0,0-1.482,1.065c-.748.378-1.112.378-1.816.737Zm25.213-18.106h-1.87a8.368,8.368,0,0,0-2.961.363,15.823,15.823,0,0,1-2.6,1.863v15.52h-3.349V-98.38h3.349v3a25.486,25.486,0,0,1,3.32-2.255,4.074,4.074,0,0,1,2.615-.745h1.5v3.7Zm21.044,17.746h-4.428l-7.384-10.348-1.5,1.464v8.884h-3.331v-29.9h3.331v17.329l7.8-8.873h4.435l-8.154,8.873Zm-59.565,0h-3.716V-101.7l-7.014,17.005H644.1L637.05-101.7v24.76h-3.316v-28.821h4.812l6.646,15.9,6.3-15.9h5.194v28.821ZM670-99.092v3.323h-.378a6.825,6.825,0,0,0-2.554.388,4.181,4.181,0,0,0-2.964,1.061h-.363V-98a16.133,16.133,0,0,1,2.55-.723A11.5,11.5,0,0,1,670-99.092Zm0,8.467v2.978a2.756,2.756,0,0,0-1.461.363c-.741.36-1.471.719-2.248,1.108a5.682,5.682,0,0,0-.748,2.582,3.73,3.73,0,0,0,1.147,2.967,2.889,2.889,0,0,0,2.583,1.1,1.331,1.331,0,0,0,.727-.36v3.305a16.641,16.641,0,0,1-1.813.36,5.355,5.355,0,0,1-2.234-.719,8.557,8.557,0,0,1-2.212-1.442,6.331,6.331,0,0,1-1.119-2.248,5.313,5.313,0,0,1-.392-2.6,5.989,5.989,0,0,1,.755-3.7,7.089,7.089,0,0,1,2.967-2.582,6.289,6.289,0,0,1,3.669-1.119Z" transform="translate(-633.734 108.703)"/><g transform="translate(266.157 1.867)"><rect width="4.443" height="5.529" transform="translate(56.969 24.371)"/><path d="M730.1-82.123v-12.56a5.22,5.22,0,0,0-2.219-.7,4.479,4.479,0,0,0-2.237-.388H725.3v-3.323h0a5.317,5.317,0,0,1,2.582.378c.737.334,1.492.719,2.219,1.079v-9.2h3.37v29.9H730.1v-2.2c-.364.352-.727.759-1.09,1.1a3.106,3.106,0,0,1-1.489.719,2.73,2.73,0,0,1-1.475.737H725.3v-3.305a2.713,2.713,0,0,0,2.223-.744A6.012,6.012,0,0,0,730.1-82.123Zm-4.8-13.646c-1.507,0-2.557.723-3.726,2.2a11.606,11.606,0,0,0-1.45,5.924,12.863,12.863,0,0,0,1.119,5.909,5.129,5.129,0,0,0,3.683,1.856h.374v3.305a1.347,1.347,0,0,1-1.094.36,7.018,7.018,0,0,1-2.964-.719,6.084,6.084,0,0,1-2.223-2.2,6.487,6.487,0,0,1-1.482-3.683,18.706,18.706,0,0,1-.748-4.827,18.037,18.037,0,0,1,.748-4.809,11.428,11.428,0,0,1,1.846-3.69,16.827,16.827,0,0,1,2.582-2.234,12.066,12.066,0,0,1,3.334-.712Z" transform="translate(-684.229 106.836)"/><path d="M720.813-78.153a5.933,5.933,0,0,1-4.442-1.457,11.216,11.216,0,0,1-1.478-5.561V-96.957h-2.226v-3h2.226v-6.273h3.32v6.273h6.3v3h-6.3v9.931c0,1.1,0,2.223.385,2.629a3.42,3.42,0,0,0,.36,1.827c0,.367.371.737.752,1.111h3.723a1.3,1.3,0,0,1,1.083-.374h0v2.942c-.719.378-1.083.378-1.863.737Z" transform="translate(-694.925 108.412)"/><path d="M723.254-77.716h-15.52v-28.82h3.7v25.5h11.824Z" transform="translate(-707.733 107.615)"/></g><g transform="translate(176.578)"><rect width="4.044" height="5.545" transform="translate(67.734 26.581)"/><path d="M705.589-78.153a5.928,5.928,0,0,1-4.442-1.457c-1.111-1.489-1.474-2.96-1.474-5.561V-96.957h-2.237v-3h2.237v-6.273h3.291v6.273h6.344v3h-6.344V-84.4c0,.7.392,1.083.392,1.827.389.367.752.737,1.118,1.111H707.8a2.948,2.948,0,0,1,1.136-.374h.374v2.942c-.755.378-1.511.378-1.877.737Z" transform="translate(-644.897 110.279)"/><path d="M709.562-104.485l-7.407,21.443h-2.944l-7.441-21.443h3.742l5.169,16.642,5.527-16.642Z" transform="translate(-659.609 114.808)"/><path d="M699.663-97.648c0-1.126-.367-1.845-.367-2.629a8.3,8.3,0,0,0-1.5-1.842,5.25,5.25,0,0,0-2.183-.712c0-.41-.388-.41-.773-.41v-3.295c.773,0,1.489.352,2.24.352a7.624,7.624,0,0,1,2.957,1.511,4.454,4.454,0,0,1,2.194,2.928,6.512,6.512,0,0,1,1.093,4.1,10.108,10.108,0,0,1-.705,3.3,8.6,8.6,0,0,1-1.834,2.949,5.992,5.992,0,0,1-2.989,2.266c-1.093.327-1.834.327-2.956.709v-3.331c.385,0,.773-.374,1.122-.374A7.242,7.242,0,0,0,698.2-93.6a9.056,9.056,0,0,0,1.1-1.863C699.3-96.159,699.663-96.926,699.663-97.648Zm-4.819-5.593h-4.78l0,11.484h4.784v3.331H690.06v10.711h-3.744v-28.821h8.528Z" transform="translate(-673.771 109.482)"/><path d="M713.307-88.508c0,4.039-.364,7.391-1.842,10.333a23.888,23.888,0,0,1-4.784,8.485h-4.1c1.126-.691,1.831-1.838,2.95-3.3a21.912,21.912,0,0,0,2.233-4.446,21.138,21.138,0,0,0,1.863-5.19,28.549,28.549,0,0,0,.756-5.881,28.875,28.875,0,0,0-.756-5.913,20.851,20.851,0,0,0-1.863-5.194,13.51,13.51,0,0,0-2.557-4.442,8.692,8.692,0,0,0-2.626-3.3h4.1a24.218,24.218,0,0,1,4.784,8.481C712.943-95.921,713.307-92.572,713.307-88.508Z" transform="translate(-631.535 107.355)"/><path d="M693.877-69.69h-4.4a36.045,36.045,0,0,1-4.809-8.1,32.164,32.164,0,0,1-1.838-10.718,29.768,29.768,0,0,1,1.838-10.366,32.1,32.1,0,0,1,4.809-8.481h4.4a28.883,28.883,0,0,0-2.931,3.3c-.748,1.147-1.471,2.626-2.6,4.438-.356,1.464-1.118,3.331-1.442,5.2a27.464,27.464,0,0,0-.766,5.913,27.185,27.185,0,0,0,.766,5.881,19.991,19.991,0,0,0,1.442,5.19,22.942,22.942,0,0,0,2.6,4.442,14.02,14.02,0,0,0,2.931,3.305Z" transform="translate(-682.828 107.355)"/></g></g></g></g></g></g></svg>