<svg xmlns="http://www.w3.org/2000/svg" xmlns:xlink="http://www.w3.org/1999/xlink" viewBox="0 0 733.405 820.295"><defs><filter id="a" x="0" y="0" width="733.405" height="820.295" filterUnits="userSpaceOnUse"><feOffset dy="31" input="SourceAlpha"/><feGaussianBlur stdDeviation="34" result="b"/><feFlood flood-opacity="0.161"/><feComposite operator="in" in2="b"/><feComposite in="SourceGraphic"/></filter><filter id="c" x="0" y="0" width="733.405" height="820.295" filterUnits="userSpaceOnUse"><feOffset dy="31" input="SourceAlpha"/><feGaussianBlur stdDeviation="34" result="d"/><feFlood flood-opacity="0.161"/><feComposite operator="in" in2="d"/><feComposite in="SourceGraphic"/></filter><linearGradient id="e" y1="-0.204" x2="0.761" y2="1.429" gradientUnits="objectBoundingBox"><stop offset="0" stop-color="#e9666b"/><stop offset="1" stop-color="#db2d34"/></linearGradient><linearGradient id="f" x1="3.391" y1="-1.077" x2="0.761" y2="1.429" gradientUnits="objectBoundingBox"><stop offset="0" stop-color="#fff"/><stop offset="1" stop-color="#fff"/></linearGradient><clipPath id="i"><g transform="matrix(1, 0, 0, 1, 0, 0)" filter="url(#a)"><rect width="529.405" height="616.295" transform="translate(260 5964.23)" fill="#db2d34"/></g></clipPath><linearGradient id="j" x1="0.5" x2="0.5" y2="1" gradientUnits="objectBoundingBox"><stop offset="0" stop-color="#fff"/><stop offset="1" stop-color="#fff" stop-opacity="0"/></linearGradient></defs><g transform="translate(-158 -5893.231)"><g transform="matrix(1, 0, 0, 1, 158, 5893.23)" filter="url(#c)"><rect width="529.405" height="616.295" transform="translate(102 71)" fill="#db2d34"/></g><ellipse cx="60.469" cy="60.87" rx="60.469" ry="60.87" transform="translate(569.153 6294.021)" opacity="0.49" fill="url(#e)"/><path d="M-652.16,1492.506h-7.266a14.469,14.469,0,0,1-12.84,12.973v5.071a14.461,14.461,0,0,1,12.892,14.011h7.161a14.454,14.454,0,0,1,12-13.875v-5.343A14.463,14.463,0,0,1-652.16,1492.506Zm-4.079,22.219-6.191-6.191,6.191-6.192,6.192,6.192Z" transform="translate(965.094 4951.31)" fill="#fff" opacity="0.21"/><rect width="24.716" height="24.716" transform="translate(671.67 6278.122) rotate(-45)" fill="#fff" opacity="0.21"/><g transform="translate(324.874 6159.683)"><path d="M352.421,125.321H317.072C311.628,55.306,252.916,0,181.529,0S51.429,55.306,45.986,125.321H10.636A10.637,10.637,0,0,0,0,135.957V249.886a10.637,10.637,0,0,0,10.636,10.636H56.208a10.637,10.637,0,0,0,10.636-10.636V135.957a114.684,114.684,0,1,1,229.369,0V249.886A69.192,69.192,0,0,1,227.1,319H213.205a33.422,33.422,0,1,0,0,21.273H227.1a90.515,90.515,0,0,0,89.757-79.75h35.564a10.637,10.637,0,0,0,10.636-10.636V135.957a10.637,10.637,0,0,0-10.636-10.636ZM45.571,239.249h-24.3V146.594h24.3ZM181.529,341.784a12.149,12.149,0,1,1,12.15-12.149A12.163,12.163,0,0,1,181.529,341.784ZM341.784,239.249h-24.3V146.594h24.3Z" transform="translate(0 0)" opacity="0.67" fill="url(#f)"/><path d="M338.633,177.564a10.912,10.912,0,0,0-11.892,2.364s-34.071,34.06-50.225,50.2A39.493,39.493,0,0,0,265.1,257.777a10.913,10.913,0,0,0,10.913,10.913h47.531v24.153a10.913,10.913,0,0,0,21.825,0V268.69h.776a10.913,10.913,0,1,0,0-21.825h-.776V187.645A10.915,10.915,0,0,0,338.633,177.564Zm-15.089,69.3H290.785a17.235,17.235,0,0,1,1.182-1.32c8.174-8.168,20.957-20.944,31.576-31.56Z" transform="translate(-87.882 -73.532)" fill="url(#f)"/><path d="M208.8,292.843a10.913,10.913,0,0,0-10.913-10.913h-43.67a16.932,16.932,0,0,1,1.181-1.32c16.131-16.119,50.2-50.181,50.2-50.181a10.913,10.913,0,0,0,3.2-7.717v-5.844a40.134,40.134,0,0,0-80.268-.012v.012a10.913,10.913,0,1,0,21.825-.012,18.309,18.309,0,0,1,36.618.012v1.323c-8.849,8.846-33.876,33.863-47.028,47.007a39.491,39.491,0,0,0-11.415,27.647,10.913,10.913,0,0,0,10.913,10.913H197.89A10.912,10.912,0,0,0,208.8,292.843Z" transform="translate(-42.66 -73.533)" fill="url(#f)"/></g><g clip-path="url(#i)"><circle cx="187.815" cy="187.815" r="187.815" transform="translate(584.371 6298.826)" opacity="0.18" fill="url(#j)"/></g></g></svg>