<svg xmlns="http://www.w3.org/2000/svg" width="56.97" height="61.227" viewBox="0 0 56.97 61.227"><g transform="translate(-1573.585 -9897.391)"><g transform="translate(1586.433 9914.495)"><path d="M1245.171,212.866a2.587,2.587,0,1,0,2.586,2.586A2.586,2.586,0,0,0,1245.171,212.866Z" transform="translate(-1211.429 -204.988)" fill="#db2d34"/><path d="M1237.479,215.544a10.866,10.866,0,1,0,10.866,10.866A10.879,10.879,0,0,0,1237.479,215.544Zm0,17.827a6.96,6.96,0,1,1,6.96-6.96A6.968,6.968,0,0,1,1237.479,233.371Z" transform="translate(-1215.238 -204.349)" fill="#db2d34"/><path d="M1248.3,250.627h-17.615a13.268,13.268,0,0,1-13.253-13.253V219.758a13.267,13.267,0,0,1,13.253-13.253H1248.3a13.268,13.268,0,0,1,13.254,13.253v17.616A13.269,13.269,0,0,1,1248.3,250.627Zm-17.615-39.972a9.113,9.113,0,0,0-9.1,9.1v17.616a9.112,9.112,0,0,0,9.1,9.1H1248.3a9.112,9.112,0,0,0,9.1-9.1V219.758a9.113,9.113,0,0,0-9.1-9.1Z" transform="translate(-1217.428 -206.505)" fill="#db2d34"/></g><circle cx="16.815" cy="16.815" r="16.815" transform="matrix(1, -0.017, 0.017, 1, 1573.585, 9897.978)" fill="#979797" opacity="0.1"/></g></svg>