<svg xmlns="http://www.w3.org/2000/svg" width="106.416" height="128.397" viewBox="0 0 106.416 128.397"><g transform="translate(0.5 0.813)"><path d="M1024.035,962.328v120.35l-22.683,1.259v-1.728q0-53.35-.03-106.7a2.328,2.328,0,0,1,1.477-2.462C1009.828,969.553,1016.821,965.981,1024.035,962.328Z" transform="translate(-973.006 -962.328)" fill="#fff" stroke="rgba(0,0,0,0)" strokeMiterlimit="10" strokeWidth="1"/><path d="M1080.456,962.412c6.613,3.349,13.006,6.761,19.553,9.81,2.431,1.133,3.117,2.494,3.109,5.236-.105,34.811-.069,69.622-.069,104.432v2.081l-22.594-1.241Z" transform="translate(-1029.427 -962.383)" fill="#fff" stroke="rgba(0,0,0,0)" strokeMiterlimit="10" strokeWidth="1" opacity="0.39"/><path d="M1158.809,1080.148c4.087,2.069,7.989,4,11.835,6.053.4.214.656,1.113.663,1.7.053,4.775.031,9.552.031,14.328q0,29.52,0,59.039v2.215l-12.528-1.911Z" transform="translate(-1081.989 -1039.459)" fill="#fff" stroke="rgba(0,0,0,0)" strokeMiterlimit="10" strokeWidth="1" opacity="0.39"/><path d="M966.329,1080.092v81.431l-12.52,1.961v-1.954q0-36.762-.028-73.523a2.179,2.179,0,0,1,1.433-2.315C958.88,1083.925,962.494,1082.037,966.329,1080.092Z" transform="translate(-941.113 -1039.422)" fill="#fff" stroke="rgba(0,0,0,0)" strokeMiterlimit="10" strokeWidth="1"/><path d="M924.878,1204.3l-9.459,2.247c-.039-.732-.093-1.283-.093-1.834q-.007-28.4-.03-56.8a2.168,2.168,0,0,1,1.405-2.334c2.7-1.258,5.334-2.667,8.177-4.108Z" transform="translate(-915.295 -1079.603)" fill="#fff" stroke="rgba(0,0,0,0)" strokeMiterlimit="10" strokeWidth="1"/><path d="M1206.483,1141.413c3.061,1.554,5.943,2.944,8.736,4.509a2.628,2.628,0,0,1,.8,1.958c.053,8.4.035,16.8.035,25.193q0,15.7,0,31.405c0,.614,0,1.229,0,2.04l-9.565-2.264Z" transform="translate(-1110.635 -1079.566)" fill="#fff" stroke="rgba(0,0,0,0)" strokeMiterlimit="10" strokeWidth="1" opacity="0.39"/></g></svg>