<svg xmlns="http://www.w3.org/2000/svg" width="26.578" height="28.91" viewBox="0 0 26.578 28.91"><g opacity="0.54"><g transform="translate(0)"><path d="M22.686,18.689a13.136,13.136,0,0,0-5.05-3.445,8.579,8.579,0,0,0,3.336-6.887C20.972,3.749,17.526,0,13.289,0S5.606,3.749,5.606,8.357a8.579,8.579,0,0,0,3.336,6.887,13.136,13.136,0,0,0-5.05,3.445A15.023,15.023,0,0,0,0,28.91H2.076c0-6.725,5.03-12.2,11.213-12.2S24.5,22.185,24.5,28.91h2.076A15.024,15.024,0,0,0,22.686,18.689Zm-9.4-4.234a5.874,5.874,0,0,1-5.606-6.1,5.874,5.874,0,0,1,5.606-6.1,5.874,5.874,0,0,1,5.606,6.1A5.874,5.874,0,0,1,13.289,14.455Z" transform="translate(0)" fill="#929292"/></g></g></svg>