<svg xmlns="http://www.w3.org/2000/svg" width="68.097" height="64.265" viewBox="0 0 68.097 64.265"><g transform="translate(-1324.651 -9897.391)"><path d="M1173.749,227.658a14.783,14.783,0,0,0-14.782-14.784h-37.8a14.784,14.784,0,0,0-14.784,14.784V245.25a14.784,14.784,0,0,0,14.784,14.784h37.8a14.783,14.783,0,0,0,14.782-14.784Zm-22.232,10.115-16.95,8.386c-.667.359-2.924-.121-2.924-.877V228.067c0-.767,2.276-1.247,2.942-.867l16.226,8.827C1151.493,236.416,1152.206,237.4,1151.517,237.773Z" transform="translate(219 9701.621)" fill="#db2d34"/><circle cx="16.815" cy="16.815" r="16.815" transform="matrix(1, -0.017, 0.017, 1, 1324.651, 9897.978)" fill="#979797" opacity="0.1"/></g></svg>